<?xml version="1.0" encoding="UTF-8"?>
<svg id="uuid-55e1dc5f-fb97-455e-be37-79fcfb8f0912" data-name="Layer 1" xmlns="http://www.w3.org/2000/svg" viewBox="0 0 512 512">
  <path d="M458.67,85.33H53.33C23.92,85.33,0,109.27,0,138.67v234.67c0,29.4,23.92,53.33,53.33,53.33H458.67c29.42,0,53.33-23.94,53.33-53.33V138.67c0-29.4-23.91-53.33-53.33-53.33Zm32,288c0,17.64-14.36,32-32,32H53.33c-17.64,0-32-14.36-32-32V138.67c0-17.64,14.36-32,32-32H458.67c17.64,0,32,14.36,32,32v234.67h0Z" fill="#e53636"/>
  <path d="M501.33,149.33H10.67c-5.89,0-10.67,4.78-10.67,10.67v64c0,5.89,4.78,10.67,10.67,10.67H501.33c5.89,0,10.67-4.78,10.67-10.67v-64c0-5.89-4.78-10.67-10.67-10.67Zm-10.67,64H21.33v-42.67H490.67v42.67h0Z" fill="#e53636"/>
</svg>