<?xml version="1.0" encoding="utf-8"?>
<!-- Generator: Adobe Illustrator 27.0.1, SVG Export Plug-In . SVG Version: 6.00 Build 0)  -->
<svg version="1.1" id="uuid-b03189d6-b5ed-4856-a7f5-1c9b50748ec7"
	 xmlns="http://www.w3.org/2000/svg" xmlns:xlink="http://www.w3.org/1999/xlink" x="0px" y="0px" viewBox="0 0 516.1 515.6"
	 style="enable-background:new 0 0 516.1 515.6;" xml:space="preserve">
<style type="text/css">
	.st0{fill:#E53636;}
</style>
<path class="st0" d="M447,316.2c-8.8-42.4-40.6-75.8-82.5-86.7V48c0-21.1-29.7-35-90.7-42.5C230.6,0.2,187.1,0,182.3,0
	S134,0.2,90.7,5.5C29.7,13,0,26.9,0,48v335.7c0,11.2,8.3,20.4,24.8,27.5c13.6,5.9,33.5,10.7,59.2,14.2c0,0.9,0,1.8,0,2.6
	c0,48.3,36.7,87.5,81.7,87.5h255.7c52.2,0,94.7-45.6,94.7-101.6C517.3,369.5,489,329.8,447,316.2z M335.8,154.7
	c-3,2.3-14.4,7.8-41.9,12.9c-21.4,4-58.1,8.7-111.6,8.7c-53.1,0-89.8-4.7-111.3-8.6c-27.6-5-39.1-10.4-42.2-12.7V77
	c48.8,18.7,149,19,153.5,19c4.5,0,104.7-0.2,153.5-19V154.7z M255.4,271.7c-21.2-3.4-43.2,1.4-61,13.6c-4,0.1-8.1,0.1-12.2,0.1
	c-53.5,0-90.2-4.7-111.6-8.7c-27.5-5.1-38.9-10.6-41.9-12.9v-77.7c48.8,18.7,149,19,153.5,19c4.5,0,104.7-0.2,153.5-19v40.7
	C303.5,228.7,274,245.2,255.4,271.7z M293.8,58.5c-21.4,4-58.1,8.7-111.6,8.7c-52.5,0-89.3-4.7-110.9-8.6
	c-21-3.8-32.9-7.8-38.7-10.4c5.7-2.8,17.3-6.8,38.1-10.7c21.4-4,58.1-8.7,111.5-8.7c53.4,0,90.2,4.7,111.6,8.7
	c20.3,3.8,31.8,7.7,37.7,10.5C325.6,50.7,314.1,54.7,293.8,58.5z M28.8,295.2C66.4,309.7,134,313.2,166.9,314
	c-5.3,8.5-9.3,17.8-11.8,27.4c-15.2,2.4-29.4,8.9-41.1,19c-11.5,9.9-20,22.5-24.8,36.7c-43.1-5.9-56.9-13.6-60.4-16.1V295.2z
	 M165.7,369.3h1.4c7.2,0,13.3-5.3,14.3-12.4c4.5-32.8,30.6-57.5,60.6-57.5c5.4,0,10.8,0.8,16,2.4c6.3,1.9,13.1-0.8,16.5-6.5l0.1-0.1
	c13.6-24.1,39.2-39.4,66.8-39.7c39,0,72.9,32,78.9,74.5c0.9,6.2,5.6,11.1,11.7,12.2c32.1,5.7,55.4,36,55.4,71.9
	c0,40.2-29.6,72.9-65.9,72.9h-6v0H165.7c-29.2,0-52.9-26.4-52.9-58.8S136.5,369.3,165.7,369.3z"/>
</svg>
