<?xml version="1.0" encoding="utf-8"?>
<!-- Generator: Adobe Illustrator 27.0.1, SVG Export Plug-In . SVG Version: 6.00 Build 0)  -->
<svg version="1.1" id="uuid-c42dbe78-7cc8-4dc3-8677-85063718b91d"
	 xmlns="http://www.w3.org/2000/svg" xmlns:xlink="http://www.w3.org/1999/xlink" x="0px" y="0px" viewBox="0 0 32 24"
	 style="enable-background:new 0 0 32 24;" xml:space="preserve">
<style type="text/css">
	.st0{fill:#E53636;}
</style>
<g>
	<path class="st0" d="M31.5,14.9L31.5,14.9L25.9,2.2c-0.6-1.2-1.8-2.1-3.2-2.1H9.3c-1.4,0-2.6,0.8-3.2,2.1L0.5,14.6l-0.1,0.2l0,0
		c-0.1,0.3-0.2,0.7-0.2,1V21c0,1.6,1.3,2.8,2.8,2.8h25.8c1.6,0,2.8-1.3,2.8-2.8v-5.2C31.7,15.5,31.7,15.2,31.5,14.9z M30,15.9V21
		c0,0.6-0.5,1-1,1H3.1c-0.6,0-1-0.5-1-1v-5.2c0-0.6,0.5-1,1-1h25.8C29.5,14.8,30,15.3,30,15.9z M3.2,13L7.7,2.9c0.3-0.6,0.9-1,1.5-1
		h13.4c0.7,0,1.3,0.4,1.5,1L28.8,13H3.2z"/>
	<path class="st0" d="M26.3,16.9c-0.8,0-1.5,0.7-1.5,1.5s0.7,1.5,1.5,1.5s1.5-0.7,1.5-1.5S27.2,16.9,26.3,16.9z"/>
</g>
</svg>
