<?xml version="1.0" encoding="utf-8"?>
<!-- Generator: Adobe Illustrator 27.0.1, SVG Export Plug-In . SVG Version: 6.00 Build 0)  -->
<svg version="1.1" id="Layer_1" xmlns="http://www.w3.org/2000/svg" xmlns:xlink="http://www.w3.org/1999/xlink" x="0px" y="0px"
	 viewBox="0 0 64 64" style="enable-background:new 0 0 64 64;" xml:space="preserve">
<style type="text/css">
	.st0{fill-rule:evenodd;clip-rule:evenodd;fill:#E53636;}
</style>
<g transform="translate(-1768 -168)">
	<path class="st0" d="M1790,201.8V201c0-1.1-0.9-2-2-2s-2,0.9-2,2v6c0,1.1,0.9,2,2,2h6c1.1,0,2-0.9,2-2s-0.9-2-2-2h-1.6
		c2-1.9,4.6-3,7.6-3c6.1,0,11,4.9,11,11s-4.9,11-11,11c-5.5,0-10.1-4-10.9-9.3c-0.2-1.1-1.2-1.8-2.3-1.7c-1.1,0.2-1.8,1.2-1.7,2.3
		c1.1,7.2,7.3,12.7,14.8,12.7c8.3,0,15-6.7,15-15s-6.7-15-15-15C1796.2,198,1792.6,199.4,1790,201.8L1790,201.8z M1782.4,186
		c-8,0.3-14.4,6.9-14.4,15c0,7.5,5.5,13.7,12.7,14.8c1.1,0.2,2.1-0.6,2.3-1.7c0.2-1.1-0.6-2.1-1.7-2.3c-5.3-0.8-9.3-5.4-9.3-10.9
		c0-6.1,4.9-11,11-11h1.1c1,0,1.9-0.8,2-1.8c0.9-6.9,6.8-12.2,13.9-12.2s13,5.3,13.9,12.2c0.1,1,1,1.8,2,1.8h1.1c6.1,0,11,4.9,11,11
		c0,5.5-4,10.1-9.3,10.9c-1.1,0.2-1.8,1.2-1.7,2.3c0.2,1.1,1.2,1.8,2.3,1.7c7.2-1.1,12.7-7.3,12.7-14.8c0-8.1-6.4-14.7-14.4-15
		c-1.8-8-9-14-17.6-14S1784.3,178,1782.4,186L1782.4,186z"/>
</g>
</svg>
