<svg width="120" height="128" viewBox="0 0 120 128" fill="none" xmlns="http://www.w3.org/2000/svg">
<g clip-path="url(#clip0_354_151)">
<path d="M3.2627 66.9154V101.816C3.2627 102.077 3.44749 102.402 3.67688 102.529L37.1306 121.818C37.36 121.952 37.7296 121.952 37.959 121.818L39.0741 121.174C39.3035 121.04 39.4883 120.722 39.4883 120.46V85.5603C39.4883 85.299 39.2716 85.0824 39.0104 85.0824L3.74061 66.4375C3.47935 66.4375 3.2627 66.6542 3.2627 66.9154Z" fill="#FAFAFA"/>
<path d="M39.0037 85.082H38.016C37.7547 85.082 37.5381 85.2987 37.5381 85.5599V121.582C37.5381 121.843 37.7229 121.951 37.9523 121.824L39.0674 121.18C39.2968 121.046 39.4816 120.728 39.4816 120.466V85.5663C39.4816 85.3051 39.2649 85.0884 39.0037 85.0884V85.082Z" fill="#F5F5F5"/>
<path d="M69.877 26.9232V61.8234C69.877 62.0846 70.0617 62.4096 70.2911 62.5371L105.064 82.5965C105.293 82.7304 105.663 82.7304 105.892 82.5965L107.007 81.953C107.237 81.8191 107.422 81.5005 107.422 81.2393V46.3391C107.422 46.0779 107.205 45.8612 106.944 45.8612L70.3612 26.4453C70.1 26.4453 69.8833 26.662 69.8833 26.9232H69.877Z" fill="#E0E0E0"/>
<path d="M106.944 45.8613H105.956C105.695 45.8613 105.479 46.078 105.479 46.3392V82.3609C105.479 82.6222 105.663 82.7305 105.893 82.603L107.008 81.9595C107.237 81.8256 107.422 81.507 107.422 81.2458V46.3456C107.422 46.0844 107.205 45.8677 106.944 45.8677V45.8613Z" fill="#EBEBEB"/>
<path d="M0 65.8188V65.4874C0 64.9586 0.369584 64.315 0.828377 64.0537L70.9983 23.5397C71.4571 23.2784 72.1963 23.2784 72.6551 23.5397L109.824 45.001C110.282 45.2623 110.652 45.9059 110.652 46.4348V46.7661C110.652 47.295 110.282 47.9386 109.824 48.1998L39.6538 88.7139C39.195 88.9751 38.4558 88.9751 37.997 88.7139L0.828377 67.2525C0.369584 66.9913 0 66.3477 0 65.8188Z" fill="#F5F5F5"/>
<path d="M38.8254 86.6685V88.9115C38.5259 88.9115 38.2264 88.8414 37.997 88.7139L0.828377 67.2526C0.369584 66.985 0 66.3477 0 65.8189V65.4875C0 65.0223 0.286746 64.4616 0.675446 64.1621C0.375956 64.417 0.426933 64.7738 0.828377 65.0096L37.997 86.4709C38.2264 86.6048 38.5259 86.6685 38.8254 86.6685Z" fill="#EBEBEB"/>
<path d="M0.82847 65.0095L37.9971 86.4709C38.4559 86.7321 39.1951 86.7321 39.6539 86.4709L109.824 45.9569C110.283 45.6956 110.283 45.2623 109.824 45.001L72.6551 23.5397C72.1963 23.2784 71.4572 23.2784 70.9984 23.5397L0.82847 64.0537C0.369677 64.315 0.369677 64.7483 0.82847 65.0095Z" fill="#FAFAFA"/>
<path d="M60.7331 50.0295L81.7484 37.8715C82.1244 37.6548 82.7297 37.6548 83.1057 37.8715L89.7582 41.7585C90.1342 41.9751 90.1342 42.3256 89.7582 42.5422L68.7429 54.7003C68.367 54.9169 67.7616 54.9169 67.3856 54.7003L60.7331 50.8133C60.3572 50.5966 60.3572 50.2462 60.7331 50.0295Z" fill="#EBEBEB"/>
<path d="M64.4609 42.4846L64.4417 42.4718L62.2179 41.1847C61.912 41.0062 61.912 40.7259 62.2179 40.5474L79.6775 30.4667C79.9834 30.2883 79.9834 30.0079 79.6775 29.8295L79.4991 29.7276C79.1932 29.5491 78.7026 29.5491 78.3967 29.7276L61.4277 39.5279C61.1219 39.7063 60.8415 39.7191 60.8287 39.5598C60.8287 39.4642 60.8287 39.3622 60.8479 39.2666L61.81 34.2836C61.8738 33.9395 61.6826 33.519 61.3767 33.3406L61.2047 33.2386C60.8988 33.0666 60.5993 33.2004 60.5292 33.5508L59.4205 39.3367C59.3823 39.5406 59.3759 39.7637 59.4078 39.9803C59.4587 40.3308 59.3313 40.7322 59.0318 40.9107L48.4413 47.0279C48.1354 47.2063 48.1354 47.4867 48.4413 47.6651L48.6197 47.7671C48.9256 47.9455 49.4162 47.9455 49.7221 47.7671L59.8474 41.9238C60.1533 41.7454 60.4209 41.618 60.44 41.6371C60.4528 41.6498 60.4655 41.6562 60.4846 41.6689L63.9256 43.657C64.2315 43.8355 64.7221 43.8355 65.028 43.657C66.5382 42.7904 70.7183 40.3818 72.2285 39.5088C72.5343 39.3304 72.6363 39.1073 72.4515 39.0054C72.2667 38.9034 71.8653 38.9417 71.5467 39.0946L65.0471 42.2233C64.7285 42.3762 64.4672 42.4973 64.4545 42.4909L64.4609 42.4846Z" fill="#EBEBEB"/>
<path d="M83.0224 36.2641L89.3181 39.8962C89.6941 40.1128 89.9999 40.6162 89.9999 41.024C89.9999 41.4318 89.6941 41.9353 89.3181 42.1519L68.991 53.8894C68.615 54.106 68.0097 54.106 67.6337 53.8894L61.3381 50.2573C60.9621 50.0406 60.6562 49.5372 60.6562 49.1294C60.6562 48.7216 60.9621 48.2182 61.3381 48.0015L81.6652 36.2641C82.0411 36.0474 82.6465 36.0474 83.0224 36.2641Z" fill="#37474F"/>
<path d="M68.3087 54.0564C68.0602 54.0564 67.8181 53.9991 67.6269 53.8908L61.3312 50.2586C60.9553 50.042 60.6494 49.5386 60.6494 49.1308C60.6494 48.723 60.9553 48.2196 61.3312 48.0029L61.9876 47.627H68.3087V54.0564Z" fill="#263238"/>
<path d="M61.3308 47.9957L81.6579 36.2582C82.0338 36.0415 82.6392 36.0415 83.0152 36.2582L89.3108 39.8903C89.6868 40.107 89.6868 40.4574 89.3108 40.6741L68.9837 52.4115C68.6078 52.6282 68.0024 52.6282 67.6265 52.4115L61.3308 48.7794C60.9548 48.5628 60.9548 48.2123 61.3308 47.9957Z" fill="#455A64"/>
<path d="M79.9124 41.6747L80.5496 41.3051C80.5496 41.3051 80.5751 41.2605 80.5496 41.2478L79.8105 40.8208C79.8105 40.8208 79.734 40.8017 79.7085 40.8208L79.0713 41.1904C79.0713 41.1904 79.0458 41.235 79.0713 41.2478L79.8105 41.6747C79.8105 41.6747 79.8869 41.6938 79.9124 41.6747ZM78.6507 40.2091L78.0135 40.5787C78.0135 40.5787 77.988 40.6233 78.0135 40.636L78.7527 41.063C78.7527 41.063 78.8291 41.0821 78.8546 41.063L79.4918 40.6934C79.4918 40.6934 79.5173 40.6488 79.4918 40.636L78.7527 40.2091C78.7527 40.2091 78.6762 40.19 78.6507 40.2091ZM76.5862 41.4007L75.5029 42.0252C75.5029 42.0252 75.4774 42.0698 75.5029 42.0825L76.2421 42.5095C76.2421 42.5095 76.3185 42.5286 76.344 42.5095L77.4273 41.885C77.4273 41.885 77.4528 41.8404 77.4273 41.8276L76.6881 41.4007C76.6881 41.4007 76.6116 41.3816 76.5862 41.4007ZM77.7204 40.7444L77.0832 41.114C77.0832 41.114 77.0577 41.1586 77.0832 41.1713L77.8223 41.5982C77.8223 41.5982 77.8988 41.6174 77.9243 41.5982L78.5615 41.2287C78.5615 41.2287 78.587 41.1841 78.5615 41.1713L77.8223 40.7444C77.8223 40.7444 77.7459 40.7253 77.7204 40.7444ZM75.2098 42.1908L74.5726 42.5604C74.5726 42.5604 74.5471 42.605 74.5726 42.6178L75.3117 43.0447C75.3117 43.0447 75.3882 43.0638 75.4137 43.0447L76.0509 42.6751C76.0509 42.6751 76.0764 42.6305 76.0509 42.6178L75.3117 42.1908C75.3117 42.1908 75.2353 42.1717 75.2098 42.1908ZM74.2731 42.7325L73.6359 43.1021C73.6359 43.1021 73.6104 43.1467 73.6359 43.1594L74.375 43.5863C74.375 43.5863 74.4515 43.6055 74.477 43.5863L75.1142 43.2168C75.1142 43.2168 75.1397 43.1722 75.1142 43.1594L74.375 42.7325C74.375 42.7325 74.2986 42.7134 74.2731 42.7325ZM77.1851 44.4721L77.8223 44.1025C77.8223 44.1025 77.8478 44.0579 77.8223 44.0451L77.0832 43.6182C77.0832 43.6182 77.0067 43.5991 76.9812 43.6182L76.344 43.9878C76.344 43.9878 76.3185 44.0324 76.344 44.0451L77.0832 44.4721C77.0832 44.4721 77.1596 44.4912 77.1851 44.4721ZM76.2484 45.0137L76.8856 44.6441C76.8856 44.6441 76.9111 44.5995 76.8856 44.5868L76.1465 44.1598C76.1465 44.1598 76.07 44.1407 76.0445 44.1598L75.4073 44.5294C75.4073 44.5294 75.3818 44.574 75.4073 44.5868L76.1465 45.0137C76.1465 45.0137 76.2229 45.0328 76.2484 45.0137ZM75.3117 45.5553L75.9489 45.1858C75.9489 45.1858 75.9744 45.1411 75.9489 45.1284L75.2098 44.7015C75.2098 44.7015 75.1333 44.6824 75.1078 44.7015L74.4706 45.0711C74.4706 45.0711 74.4451 45.1157 74.4706 45.1284L75.2098 45.5553C75.2098 45.5553 75.2862 45.5744 75.3117 45.5553ZM74.375 46.097L75.0122 45.7274C75.0122 45.7274 75.0377 45.6828 75.0122 45.67L74.2731 45.2431C74.2731 45.2431 74.1966 45.224 74.1711 45.2431L73.5339 45.6127C73.5339 45.6127 73.5084 45.6573 73.5339 45.67L74.2731 46.097C74.2731 46.097 74.3495 46.1161 74.375 46.097ZM78.9821 42.2163L79.6193 41.8468C79.6193 41.8468 79.6448 41.8021 79.6193 41.7894L78.8801 41.3625C78.8801 41.3625 78.8037 41.3434 78.7782 41.3625L78.141 41.7321C78.141 41.7321 78.1155 41.7767 78.141 41.7894L78.8801 42.2163C78.8801 42.2163 78.9566 42.2355 78.9821 42.2163ZM78.1218 43.9368L79.5492 43.1148C79.5492 43.1148 79.5747 43.0702 79.5492 43.0575L77.7522 42.0188C77.7522 42.0188 77.6758 41.9997 77.6503 42.0188L76.9111 42.4457C76.9111 42.4457 76.8856 42.4903 76.9111 42.5031L77.8606 43.0511C77.8606 43.0511 77.8924 43.0957 77.8606 43.1084L77.268 43.4525C77.268 43.4525 77.2425 43.4971 77.268 43.5099L78.0071 43.9368C78.0071 43.9368 78.0836 43.9559 78.1091 43.9368H78.1218ZM73.3427 43.2805L72.7055 43.6501C72.7055 43.6501 72.68 43.6947 72.7055 43.7074L73.4447 44.1343C73.4447 44.1343 73.5212 44.1535 73.5466 44.1343L74.1839 43.7648C74.1839 43.7648 74.2093 43.7202 74.1839 43.7074L73.4447 43.2805C73.4447 43.2805 73.3682 43.2614 73.3427 43.2805ZM72.406 43.8221L71.7688 44.1917C71.7688 44.1917 71.7433 44.2363 71.7688 44.249L72.508 44.676C72.508 44.676 72.5845 44.6951 72.6099 44.676L73.2472 44.3064C73.2472 44.3064 73.2726 44.2618 73.2472 44.249L72.508 43.8221C72.508 43.8221 72.4315 43.803 72.406 43.8221ZM67.7289 49.8756C67.7289 49.8756 67.8054 49.8948 67.8308 49.8756L68.4681 49.5061C68.4681 49.5061 68.4935 49.4614 68.4681 49.4487L67.7289 49.0218C67.7289 49.0218 67.6524 49.0027 67.6269 49.0218L66.9897 49.3914C66.9897 49.3914 66.9642 49.436 66.9897 49.4487L67.7289 49.8756ZM64.9188 48.1424L64.2816 48.512C64.2816 48.512 64.2561 48.5566 64.2816 48.5694L65.0207 48.9963C65.0207 48.9963 65.0972 49.0154 65.1227 48.9963L65.7599 48.6267C65.7599 48.6267 65.7854 48.5821 65.7599 48.5694L65.0207 48.1424C65.0207 48.1424 64.9443 48.1233 64.9188 48.1424ZM66.4226 49.4105C66.4226 49.4105 66.4991 49.4296 66.5246 49.4105L67.1618 49.0409C67.1618 49.0409 67.1873 48.9963 67.1618 48.9835L66.4226 48.5566C66.4226 48.5566 66.3461 48.5375 66.3206 48.5566L65.6834 48.9262C65.6834 48.9262 65.6579 48.9708 65.6834 48.9835L66.4226 49.4105ZM69.3793 50.207L70.0165 49.8374C70.0165 49.8374 70.042 49.7928 70.0165 49.7801L69.2773 49.3531C69.2773 49.3531 69.2008 49.334 69.1754 49.3531L68.5381 49.7227C68.5381 49.7227 68.5127 49.7673 68.5381 49.7801L69.2773 50.207C69.2773 50.207 69.3538 50.2261 69.3793 50.207ZM68.3406 50.7422C68.3406 50.7422 68.4171 50.7614 68.4426 50.7422L69.0798 50.3727C69.0798 50.3727 69.1053 50.3281 69.0798 50.3153L68.3406 49.8884C68.3406 49.8884 68.2641 49.8693 68.2387 49.8884L67.6014 50.258C67.6014 50.258 67.576 50.3026 67.6014 50.3153L68.3406 50.7422ZM65.8555 47.6008L65.2183 47.9704C65.2183 47.9704 65.1928 48.015 65.2183 48.0277L65.9574 48.4547C65.9574 48.4547 66.0339 48.4738 66.0594 48.4547L66.6966 48.0851C66.6966 48.0851 66.7221 48.0405 66.6966 48.0277L65.9574 47.6008C65.9574 47.6008 65.881 47.5817 65.8555 47.6008ZM70.5326 44.899L69.8954 45.2686C69.8954 45.2686 69.8699 45.3132 69.8954 45.3259L70.6346 45.7529C70.6346 45.7529 70.711 45.772 70.7365 45.7529L71.3737 45.3833C71.3737 45.3833 71.3992 45.3387 71.3737 45.3259L70.6346 44.899C70.6346 44.899 70.5581 44.8799 70.5326 44.899ZM66.7922 47.0592L66.155 47.4287C66.155 47.4287 66.1295 47.4733 66.155 47.4861L66.8941 47.913C66.8941 47.913 66.9706 47.9321 66.9961 47.913L67.6333 47.5434C67.6333 47.5434 67.6588 47.4988 67.6333 47.4861L66.8941 47.0592C66.8941 47.0592 66.8177 47.04 66.7922 47.0592ZM71.4693 44.3574L70.8321 44.727C70.8321 44.727 70.8066 44.7716 70.8321 44.7843L71.5713 45.2112C71.5713 45.2112 71.6478 45.2304 71.6732 45.2112L72.3105 44.8417C72.3105 44.8417 72.3359 44.797 72.3105 44.7843L71.5713 44.3574C71.5713 44.3574 71.4948 44.3383 71.4693 44.3574ZM69.5959 45.4406L68.9587 45.8102C68.9587 45.8102 68.9332 45.8548 68.9587 45.8676L69.6979 46.2945C69.6979 46.2945 69.7743 46.3136 69.7998 46.2945L70.437 45.9249C70.437 45.9249 70.4625 45.8803 70.437 45.8676L69.6979 45.4406C69.6979 45.4406 69.6214 45.4215 69.5959 45.4406ZM68.6592 45.9823L68.022 46.3518C68.022 46.3518 67.9965 46.3965 68.022 46.4092L68.7612 46.8361C68.7612 46.8361 68.8376 46.8552 68.8631 46.8361L69.5003 46.4665C69.5003 46.4665 69.5258 46.4219 69.5003 46.4092L68.7612 45.9823C68.7612 45.9823 68.6847 45.9632 68.6592 45.9823ZM67.7225 46.5239L67.0853 46.8935C67.0853 46.8935 67.0598 46.9381 67.0853 46.9508L67.8245 47.3778C67.8245 47.3778 67.9009 47.3969 67.9264 47.3778L68.5636 47.0082C68.5636 47.0082 68.5891 46.9636 68.5636 46.9508L67.8245 46.5239C67.8245 46.5239 67.748 46.5048 67.7225 46.5239ZM72.5016 47.1802L73.1388 46.8106C73.1388 46.8106 73.1643 46.766 73.1388 46.7533L72.3997 46.3264C72.3997 46.3264 72.3232 46.3072 72.2977 46.3264L71.6605 46.6959C71.6605 46.6959 71.635 46.7406 71.6605 46.7533L72.3997 47.1802C72.3997 47.1802 72.4761 47.1993 72.5016 47.1802ZM80.7153 39.0175L80.0781 39.3871C80.0781 39.3871 80.0526 39.4317 80.0781 39.4445L80.8172 39.8714C80.8172 39.8714 80.8937 39.8905 80.9192 39.8714L81.5564 39.5018C81.5564 39.5018 81.5819 39.4572 81.5564 39.4445L80.8172 39.0175C80.8172 39.0175 80.7408 38.9984 80.7153 39.0175ZM79.5811 39.6739L78.9438 40.0434C78.9438 40.0434 78.9184 40.088 78.9438 40.1008L79.683 40.5277C79.683 40.5277 79.7595 40.5468 79.785 40.5277L80.4222 40.1581C80.4222 40.1581 80.4477 40.1135 80.4222 40.1008L79.683 39.6739C79.683 39.6739 79.6065 39.6547 79.5811 39.6739ZM81.6456 38.4823L81.0084 38.8519C81.0084 38.8519 80.9829 38.8965 81.0084 38.9092L81.7476 39.3361C81.7476 39.3361 81.824 39.3552 81.8495 39.3361L82.4867 38.9665C82.4867 38.9665 82.5122 38.9219 82.4867 38.9092L81.7476 38.4823C81.7476 38.4823 81.6711 38.4631 81.6456 38.4823ZM76.8028 43.478L77.44 43.1084C77.44 43.1084 77.4655 43.0638 77.44 43.0511L76.7009 42.6242C76.7009 42.6242 76.6244 42.605 76.5989 42.6242L75.9617 42.9937C75.9617 42.9937 75.9362 43.0383 75.9617 43.0511L76.7009 43.478C76.7009 43.478 76.7773 43.4971 76.8028 43.478ZM82.6843 37.947C82.6843 37.947 82.6078 37.9279 82.5823 37.947L81.9451 38.3166C81.9451 38.3166 81.9196 38.3612 81.9451 38.3739L82.6843 38.8009C82.6843 38.8009 82.7607 38.82 82.7862 38.8009L83.4234 38.4313C83.4234 38.4313 83.4489 38.3867 83.4234 38.3739L82.6843 37.947ZM73.4319 46.645L74.0692 46.2754C74.0692 46.2754 74.0946 46.2308 74.0692 46.218L73.33 45.7911C73.33 45.7911 73.2535 45.772 73.228 45.7911L72.5908 46.1607C72.5908 46.1607 72.5653 46.2053 72.5908 46.218L73.33 46.645C73.33 46.645 73.4065 46.6641 73.4319 46.645ZM84.9018 40.0243L85.539 39.6547C85.539 39.6547 85.5645 39.6101 85.539 39.5974L84.7998 39.1705C84.7998 39.1705 84.7234 39.1513 84.6979 39.1705L84.0607 39.54C84.0607 39.54 84.0352 39.5846 84.0607 39.5974L84.7998 40.0243C84.7998 40.0243 84.8763 40.0434 84.9018 40.0243ZM82.9073 39.9542L83.5445 39.5846C83.5445 39.5846 83.57 39.54 83.5445 39.5273L82.8053 39.1004C82.8053 39.1004 82.7289 39.0812 82.7034 39.1004L82.0662 39.4699C82.0662 39.4699 82.0407 39.5146 82.0662 39.5273L82.8053 39.9542C82.8053 39.9542 82.8818 39.9733 82.9073 39.9542ZM83.7421 38.5587C83.7421 38.5587 83.6656 38.5396 83.6401 38.5587L83.0029 38.9283C83.0029 38.9283 82.9774 38.9729 83.0029 38.9857L83.7421 39.4126C83.7421 39.4126 83.8185 39.4317 83.844 39.4126L84.4812 39.043C84.4812 39.043 84.5067 38.9984 84.4812 38.9857L83.7421 38.5587ZM83.9396 38.444L85.7365 39.4827C85.7365 39.4827 85.813 39.5018 85.8385 39.4827L86.4757 39.1131C86.4757 39.1131 86.5012 39.0685 86.4757 39.0558L84.6788 38.0171C84.6788 38.0171 84.6023 37.998 84.5768 38.0171L83.9396 38.3867C83.9396 38.3867 83.9141 38.4313 83.9396 38.444ZM81.7667 39.6356L81.1295 40.0052C81.1295 40.0052 81.104 40.0498 81.1295 40.0626L81.8686 40.4895C81.8686 40.4895 81.9451 40.5086 81.9706 40.4895L82.6078 40.1199C82.6078 40.1199 82.6333 40.0753 82.6078 40.0626L81.8686 39.6356C81.8686 39.6356 81.7922 39.6165 81.7667 39.6356ZM74.7255 43.701L74.0883 44.0706C74.0883 44.0706 74.0628 44.1152 74.0883 44.128L74.8274 44.5549C74.8274 44.5549 74.9039 44.574 74.9294 44.5549L75.5666 44.1853C75.5666 44.1853 75.5921 44.1407 75.5666 44.128L74.8274 43.701C74.8274 43.701 74.751 43.6819 74.7255 43.701ZM83.8631 40.5596C83.8631 40.5596 83.9396 40.5787 83.9651 40.5596L84.6023 40.19C84.6023 40.19 84.6278 40.1454 84.6023 40.1326L83.8631 39.7057C83.8631 39.7057 83.7867 39.6866 83.7612 39.7057L83.124 40.0753C83.124 40.0753 83.0985 40.1199 83.124 40.1326L83.8631 40.5596ZM75.6622 43.1594L75.025 43.529C75.025 43.529 74.9995 43.5736 75.025 43.5863L75.7641 44.0133C75.7641 44.0133 75.8406 44.0324 75.8661 44.0133L76.5033 43.6437C76.5033 43.6437 76.5288 43.5991 76.5033 43.5863L75.7641 43.1594C75.7641 43.1594 75.6877 43.1403 75.6622 43.1594ZM68.6528 49.3468C68.6528 49.3468 68.7293 49.3659 68.7548 49.3468L69.392 48.9772C69.392 48.9772 69.4175 48.9326 69.392 48.9198L68.6528 48.4929C68.6528 48.4929 68.5764 48.4738 68.5509 48.4929L67.9137 48.8625C67.9137 48.8625 67.8882 48.9071 67.9137 48.9198L68.6528 49.3468ZM67.2446 48.0213L66.6074 48.3909C66.6074 48.3909 66.5819 48.4355 66.6074 48.4483L67.3466 48.8752C67.3466 48.8752 67.423 48.8943 67.4485 48.8752L68.0857 48.5056C68.0857 48.5056 68.1112 48.461 68.0857 48.4483L67.3466 48.0213C67.3466 48.0213 67.2701 48.0022 67.2446 48.0213ZM69.6915 48.8051L70.3287 48.4355C70.3287 48.4355 70.3542 48.3909 70.3287 48.3782L69.5895 47.9513C69.5895 47.9513 69.5131 47.9321 69.4876 47.9513L68.8504 48.3208C68.8504 48.3208 68.8249 48.3654 68.8504 48.3782L69.5895 48.8051C69.5895 48.8051 69.666 48.8242 69.6915 48.8051ZM70.6282 48.2635L71.2654 47.8939C71.2654 47.8939 71.2909 47.8493 71.2654 47.8366L70.5263 47.4096C70.5263 47.4096 70.4498 47.3905 70.4243 47.4096L69.7871 47.7792C69.7871 47.7792 69.7616 47.8238 69.7871 47.8366L70.5263 48.2635C70.5263 48.2635 70.6027 48.2826 70.6282 48.2635ZM71.5649 47.7219L72.2021 47.3523C72.2021 47.3523 72.2276 47.3077 72.2021 47.2949L71.463 46.868C71.463 46.868 71.3865 46.8489 71.361 46.868L70.7238 47.2376C70.7238 47.2376 70.6983 47.2822 70.7238 47.2949L71.463 47.7219C71.463 47.7219 71.5394 47.741 71.5649 47.7219ZM68.1877 47.4733L67.5505 47.8429C67.5505 47.8429 67.525 47.8875 67.5505 47.9003L68.2896 48.3272C68.2896 48.3272 68.3661 48.3463 68.3916 48.3272L69.0288 47.9576C69.0288 47.9576 69.0543 47.913 69.0288 47.9003L68.2896 47.4733C68.2896 47.4733 68.2132 47.4542 68.1877 47.4733ZM69.1244 46.9317L68.4872 47.3013C68.4872 47.3013 68.4617 47.3459 68.4872 47.3586L69.2263 47.7856C69.2263 47.7856 69.3028 47.8047 69.3283 47.7856L69.9655 47.416C69.9655 47.416 69.991 47.3714 69.9655 47.3586L69.2263 46.9317C69.2263 46.9317 69.1499 46.9126 69.1244 46.9317ZM72.8648 44.7716L72.2276 45.1411C72.2276 45.1411 72.2021 45.1857 72.2276 45.1985L72.9668 45.6254C72.9668 45.6254 73.0432 45.6445 73.0687 45.6254L73.7059 45.2558C73.7059 45.2558 73.7314 45.2112 73.7059 45.1985L72.9668 44.7716C72.9668 44.7716 72.8903 44.7524 72.8648 44.7716ZM71.9281 45.3132L71.2909 45.6828C71.2909 45.6828 71.2654 45.7274 71.2909 45.7401L72.0301 46.1671C72.0301 46.1671 72.1065 46.1862 72.132 46.1671L72.7692 45.7975C72.7692 45.7975 72.7947 45.7529 72.7692 45.7401L72.0301 45.3132C72.0301 45.3132 71.9536 45.2941 71.9281 45.3132ZM73.8015 44.2299L73.1643 44.5995C73.1643 44.5995 73.1388 44.6441 73.1643 44.6569L73.9035 45.0838C73.9035 45.0838 73.9799 45.1029 74.0054 45.0838L74.6427 44.7142C74.6427 44.7142 74.6681 44.6696 74.6427 44.6569L73.9035 44.2299C73.9035 44.2299 73.827 44.2108 73.8015 44.2299ZM70.0611 46.3901L69.4239 46.7597C69.4239 46.7597 69.3984 46.8043 69.4239 46.817L70.163 47.2439C70.163 47.2439 70.2395 47.2631 70.265 47.2439L70.9022 46.8744C70.9022 46.8744 70.9277 46.8298 70.9022 46.817L70.163 46.3901C70.163 46.3901 70.0866 46.371 70.0611 46.3901ZM70.9978 45.8484L70.3606 46.218C70.3606 46.218 70.3351 46.2626 70.3606 46.2754L71.0997 46.7023C71.0997 46.7023 71.1762 46.7214 71.2017 46.7023L71.8389 46.3327C71.8389 46.3327 71.8644 46.2881 71.8389 46.2754L71.0997 45.8484C71.0997 45.8484 71.0233 45.8293 70.9978 45.8484ZM70.316 49.659L70.9532 49.2894C70.9532 49.2894 70.9787 49.2448 70.9532 49.2321L70.214 48.8051C70.214 48.8051 70.1376 48.786 70.1121 48.8051L69.4749 49.1747C69.4749 49.1747 69.4494 49.2193 69.4749 49.2321L70.214 49.659C70.214 49.659 70.2905 49.6781 70.316 49.659ZM64.8296 49.1046L64.0904 48.6777C64.0904 48.6777 64.0139 48.6586 63.9884 48.6777L63.3512 49.0473C63.3512 49.0473 63.3257 49.0919 63.3512 49.1046L64.0904 49.5315C64.0904 49.5315 64.1669 49.5507 64.1924 49.5315L64.8296 49.162C64.8296 49.162 64.8551 49.1174 64.8296 49.1046ZM66.2314 49.5188L65.4923 49.0919C65.4923 49.0919 65.4158 49.0728 65.3903 49.0919L64.4026 49.659C64.4026 49.659 64.3771 49.7036 64.4026 49.7163L65.1418 50.1433C65.1418 50.1433 65.2183 50.1624 65.2438 50.1433L66.2314 49.5762C66.2314 49.5762 66.2569 49.5315 66.2314 49.5188ZM63.6953 48.2826L62.9562 47.8557C62.9562 47.8557 62.8797 47.8366 62.8542 47.8557L62.0641 48.3081C62.0641 48.3081 62.0386 48.3527 62.0641 48.3654L62.8032 48.7924C62.8032 48.7924 62.8797 48.8115 62.9052 48.7924L63.6953 48.34C63.6953 48.34 63.7208 48.2953 63.6953 48.2826ZM64.3007 47.9321C64.3007 47.9321 64.3771 47.9513 64.4026 47.9321L65.0398 47.5626C65.0398 47.5626 65.0653 47.518 65.0398 47.5052L64.3007 47.0783C64.3007 47.0783 64.2242 47.0592 64.1987 47.0783L63.5615 47.4479C63.5615 47.4479 63.536 47.4925 63.5615 47.5052L64.3007 47.9321ZM67.5377 49.984L66.7986 49.557C66.7986 49.557 66.7221 49.5379 66.6966 49.557L65.4668 50.2707C65.4668 50.2707 65.4413 50.3153 65.4668 50.3281L66.2059 50.755C66.2059 50.755 66.2824 50.7741 66.3079 50.755L67.5377 50.0413C67.5377 50.0413 67.5632 49.9967 67.5377 49.984ZM68.1494 50.8506L67.4103 50.4236C67.4103 50.4236 67.3338 50.4045 67.3083 50.4236L66.5182 50.8761C66.5182 50.8761 66.4927 50.9207 66.5182 50.9334L67.2574 51.3603C67.2574 51.3603 67.3338 51.3795 67.3593 51.3603L68.1494 50.9079C68.1494 50.9079 68.1749 50.8633 68.1494 50.8506ZM71.2527 43.9113C71.2527 43.9113 71.3291 43.9304 71.3546 43.9113L71.9918 43.5417C71.9918 43.5417 72.0173 43.4971 71.9918 43.4844L71.2527 43.0575C71.2527 43.0575 71.1762 43.0383 71.1507 43.0575L70.5135 43.427C70.5135 43.427 70.488 43.4716 70.5135 43.4844L71.2527 43.9113ZM69.3793 44.9946C69.3793 44.9946 69.4557 45.0137 69.4812 44.9946L70.1184 44.625C70.1184 44.625 70.1439 44.5804 70.1184 44.5677L69.3793 44.1407C69.3793 44.1407 69.3028 44.1216 69.2773 44.1407L68.6401 44.5103C68.6401 44.5103 68.6146 44.5549 68.6401 44.5677L69.3793 44.9946ZM65.231 47.3905C65.231 47.3905 65.3075 47.4096 65.333 47.3905L65.9702 47.0209C65.9702 47.0209 65.9957 46.9763 65.9702 46.9636L65.231 46.5366C65.231 46.5366 65.1545 46.5175 65.1291 46.5366L64.4918 46.9062C64.4918 46.9062 64.4664 46.9508 64.4918 46.9636L65.231 47.3905ZM70.316 44.453C70.316 44.453 70.3924 44.4721 70.4179 44.453L71.0551 44.0834C71.0551 44.0834 71.0806 44.0388 71.0551 44.026L70.316 43.5991C70.316 43.5991 70.2395 43.58 70.214 43.5991L69.5768 43.9687C69.5768 43.9687 69.5513 44.0133 69.5768 44.026L70.316 44.453ZM68.4426 45.5362C68.4426 45.5362 68.519 45.5553 68.5445 45.5362L69.1817 45.1666C69.1817 45.1666 69.2072 45.122 69.1817 45.1093L68.4426 44.6824C68.4426 44.6824 68.3661 44.6632 68.3406 44.6824L67.7034 45.0519C67.7034 45.0519 67.6779 45.0965 67.7034 45.1093L68.4426 45.5362ZM68.6592 50.9207C68.6592 50.9207 68.5828 50.9016 68.5573 50.9207L67.5696 51.4878C67.5696 51.4878 67.5441 51.5324 67.5696 51.5451L68.3087 51.9721C68.3087 51.9721 68.3852 51.9912 68.4107 51.9721L69.3984 51.4049C69.3984 51.4049 69.4239 51.3603 69.3984 51.3476L68.6592 50.9207ZM67.098 46.3072C67.098 46.3072 67.1745 46.3264 67.2 46.3072L67.8372 45.9377C67.8372 45.9377 67.8627 45.8931 67.8372 45.8803L67.098 45.4534C67.098 45.4534 67.0216 45.4343 66.9961 45.4534L66.3589 45.823C66.3589 45.823 66.3334 45.8676 66.3589 45.8803L67.098 46.3072ZM66.1613 46.8489C66.1613 46.8489 66.2378 46.868 66.2633 46.8489L66.9005 46.4793C66.9005 46.4793 66.926 46.4347 66.9005 46.4219L66.1613 45.995C66.1613 45.995 66.0849 45.9759 66.0594 45.995L65.4222 46.3646C65.4222 46.3646 65.3967 46.4092 65.4222 46.4219L66.1613 46.8489ZM85.985 40.9164C85.985 40.9164 85.9086 40.8973 85.8831 40.9164L84.3092 41.8276C84.3092 41.8276 84.2837 41.8722 84.3092 41.885L85.0483 42.3119C85.0483 42.3119 85.1248 42.331 85.1503 42.3119L86.7242 41.4007C86.7242 41.4007 86.7497 41.3561 86.7242 41.3434L85.985 40.9164ZM83.9205 42.108C83.9205 42.108 83.844 42.0889 83.8185 42.108L83.1813 42.4776C83.1813 42.4776 83.1558 42.5222 83.1813 42.5349L83.9205 42.9619C83.9205 42.9619 83.9969 42.981 84.0224 42.9619L84.6596 42.5923C84.6596 42.5923 84.6851 42.5477 84.6596 42.5349L83.9205 42.108ZM71.2463 49.1174L71.8835 48.7478C71.8835 48.7478 71.909 48.7032 71.8835 48.6904L71.1444 48.2635C71.1444 48.2635 71.0679 48.2444 71.0424 48.2635L70.4052 48.6331C70.4052 48.6331 70.3797 48.6777 70.4052 48.6904L71.1444 49.1174C71.1444 49.1174 71.2208 49.1365 71.2463 49.1174ZM82.0471 43.1849C82.0471 43.1849 81.9706 43.1658 81.9451 43.1849L81.3079 43.5545C81.3079 43.5545 81.2824 43.5991 81.3079 43.6118L82.0471 44.0388C82.0471 44.0388 82.1235 44.0579 82.149 44.0388L82.7862 43.6692C82.7862 43.6692 82.8117 43.6246 82.7862 43.6118L82.0471 43.1849ZM86.9218 40.3684C86.9218 40.3684 86.8453 40.3493 86.8198 40.3684L86.1826 40.738C86.1826 40.738 86.1571 40.7826 86.1826 40.7953L86.9218 41.2223C86.9218 41.2223 86.9982 41.2414 87.0237 41.2223L87.6609 40.8527C87.6609 40.8527 87.6864 40.8081 87.6609 40.7953L86.9218 40.3684ZM88.5976 40.2537L86.8007 39.2151C86.8007 39.2151 86.7242 39.1959 86.6987 39.2151L86.0615 39.5846C86.0615 39.5846 86.036 39.6292 86.0615 39.642L87.8585 40.6807C87.8585 40.6807 87.9349 40.6998 87.9604 40.6807L88.5976 40.3111C88.5976 40.3111 88.6231 40.2665 88.5976 40.2537ZM78.5551 45.1985C78.5551 45.1985 78.4787 45.1794 78.4532 45.1985L77.663 45.6509C77.663 45.6509 77.6376 45.6955 77.663 45.7083L78.4022 46.1352C78.4022 46.1352 78.4787 46.1543 78.5042 46.1352L79.2943 45.6828C79.2943 45.6828 79.3198 45.6382 79.2943 45.6254L78.5551 45.1985ZM80.9192 43.8349C80.9192 43.8349 80.8427 43.8157 80.8172 43.8349L79.8296 44.402C79.8296 44.402 79.8041 44.4466 79.8296 44.4593L80.5687 44.8863C80.5687 44.8863 80.6452 44.9054 80.6707 44.8863L81.6584 44.3191C81.6584 44.3191 81.6839 44.2745 81.6584 44.2618L80.9192 43.8349ZM76.3886 46.4474C76.3886 46.4474 76.3122 46.4283 76.2867 46.4474L71.0169 49.4869C71.0169 49.4869 70.9914 49.5315 71.0169 49.5443L71.7561 49.9712C71.7561 49.9712 71.8325 49.9903 71.858 49.9712L77.1278 46.9317C77.1278 46.9317 77.1533 46.8871 77.1278 46.8744L76.3886 46.4474ZM70.8257 49.659C70.8257 49.659 70.7493 49.6399 70.7238 49.659L69.9336 50.1114C69.9336 50.1114 69.9082 50.156 69.9336 50.1688L70.6728 50.5957C70.6728 50.5957 70.7493 50.6148 70.7748 50.5957L71.5649 50.1433C71.5649 50.1433 71.5904 50.0987 71.5649 50.0859L70.8257 49.659ZM77.4719 45.823C77.4719 45.823 77.3954 45.8038 77.3699 45.823L76.5798 46.2754C76.5798 46.2754 76.5543 46.32 76.5798 46.3327L77.3189 46.7597C77.3189 46.7597 77.3954 46.7788 77.4209 46.7597L78.211 46.3072C78.211 46.3072 78.2365 46.2626 78.211 46.2499L77.4719 45.823ZM69.7425 50.2835C69.7425 50.2835 69.666 50.2643 69.6405 50.2835L68.8504 50.7359C68.8504 50.7359 68.8249 50.7805 68.8504 50.7932L69.5895 51.2202C69.5895 51.2202 69.666 51.2393 69.6915 51.2202L70.4816 50.7677C70.4816 50.7677 70.5071 50.7231 70.4816 50.7104L69.7425 50.2835ZM79.6384 44.5677C79.6384 44.5677 79.5619 44.5485 79.5364 44.5677L78.7463 45.0201C78.7463 45.0201 78.7208 45.0647 78.7463 45.0774L79.4855 45.5044C79.4855 45.5044 79.5619 45.5235 79.5874 45.5044L80.3776 45.0519C80.3776 45.0519 80.4031 45.0073 80.3776 44.9946L79.6384 44.5677ZM82.9838 42.6369C82.9838 42.6369 82.9073 42.6178 82.8818 42.6369L82.2446 43.0065C82.2446 43.0065 82.2191 43.0511 82.2446 43.0638L82.9838 43.4908C82.9838 43.4908 83.0602 43.5099 83.0857 43.4908L83.7229 43.1212C83.7229 43.1212 83.7484 43.0766 83.7229 43.0638L82.9838 42.6369ZM85.0356 41.1458L85.6728 40.7762C85.6728 40.7762 85.6983 40.7316 85.6728 40.7189L84.9336 40.292C84.9336 40.292 84.8572 40.2728 84.8317 40.292L84.1945 40.6615C84.1945 40.6615 84.169 40.7061 84.1945 40.7189L84.9336 41.1458C84.9336 41.1458 85.0101 41.1649 85.0356 41.1458ZM80.8555 41.1203L81.4927 40.7507C81.4927 40.7507 81.5182 40.7061 81.4927 40.6934L80.7535 40.2665C80.7535 40.2665 80.6771 40.2473 80.6516 40.2665L80.0144 40.636C80.0144 40.636 79.9889 40.6807 80.0144 40.6934L80.7535 41.1203C80.7535 41.1203 80.83 41.1394 80.8555 41.1203ZM78.7336 44.7843L80.607 43.701C80.607 43.701 80.6325 43.6564 80.607 43.6437L79.8678 43.2168C79.8678 43.2168 79.7913 43.1976 79.7658 43.2168L77.8924 44.3C77.8924 44.3 77.8669 44.3446 77.8924 44.3574L78.6316 44.7843C78.6316 44.7843 78.7081 44.8034 78.7336 44.7843ZM83.9969 41.6811C83.9969 41.6811 84.0734 41.7002 84.0989 41.6811L84.7361 41.3115C84.7361 41.3115 84.7616 41.2669 84.7361 41.2541L83.9969 40.8272C83.9969 40.8272 83.9205 40.8081 83.895 40.8272L83.2578 41.1968C83.2578 41.1968 83.2323 41.2414 83.2578 41.2541L83.9969 41.6811ZM83.0411 41.0757L83.6783 40.7061C83.6783 40.7061 83.7038 40.6615 83.6783 40.6488L82.9392 40.2219C82.9392 40.2219 82.8627 40.2027 82.8372 40.2219L82.2 40.5914C82.2 40.5914 82.1745 40.636 82.2 40.6488L82.9392 41.0757C82.9392 41.0757 83.0156 41.0948 83.0411 41.0757ZM77.7969 45.3259L78.4341 44.9564C78.4341 44.9564 78.4596 44.9117 78.4341 44.899L77.6949 44.4721C77.6949 44.4721 77.6184 44.453 77.5929 44.4721L76.9557 44.8417C76.9557 44.8417 76.9302 44.8863 76.9557 44.899L77.6949 45.3259C77.6949 45.3259 77.7714 45.3451 77.7969 45.3259ZM81.926 42.879C81.926 42.879 82.0025 42.8982 82.0279 42.879L82.6652 42.5095C82.6652 42.5095 82.6907 42.4649 82.6652 42.4521L81.926 42.0252C81.926 42.0252 81.8495 42.0061 81.824 42.0252L81.1868 42.3948C81.1868 42.3948 81.1613 42.4394 81.1868 42.4521L81.926 42.879ZM73.1197 48.0277L73.7569 47.6581C73.7569 47.6581 73.7824 47.6135 73.7569 47.6008L73.0178 47.1739C73.0178 47.1739 72.9413 47.1547 72.9158 47.1739L72.2786 47.5434C72.2786 47.5434 72.2531 47.588 72.2786 47.6008L73.0178 48.0277C73.0178 48.0277 73.0942 48.0468 73.1197 48.0277ZM74.0564 47.4861L74.6936 47.1165C74.6936 47.1165 74.7191 47.0719 74.6936 47.0592L73.9545 46.6322C73.9545 46.6322 73.878 46.6131 73.8525 46.6322L73.2153 47.0018C73.2153 47.0018 73.1898 47.0464 73.2153 47.0592L73.9545 47.4861C73.9545 47.4861 74.0309 47.5052 74.0564 47.4861ZM72.183 48.5694L72.8202 48.1998C72.8202 48.1998 72.8457 48.1552 72.8202 48.1424L72.0811 47.7155C72.0811 47.7155 72.0046 47.6964 71.9791 47.7155L71.3419 48.0851C71.3419 48.0851 71.3164 48.1297 71.3419 48.1424L72.0811 48.5694C72.0811 48.5694 72.1575 48.5885 72.183 48.5694ZM75.9235 46.4092L76.5607 46.0396C76.5607 46.0396 76.5862 45.995 76.5607 45.9823L75.8215 45.5553C75.8215 45.5553 75.745 45.5362 75.7195 45.5553L75.0823 45.9249C75.0823 45.9249 75.0568 45.9695 75.0823 45.9823L75.8215 46.4092C75.8215 46.4092 75.898 46.4283 75.9235 46.4092ZM74.9867 46.9508L75.624 46.5812C75.624 46.5812 75.6494 46.5366 75.624 46.5239L74.8848 46.097C74.8848 46.097 74.8083 46.0778 74.7828 46.097L74.1456 46.4665C74.1456 46.4665 74.1201 46.5112 74.1456 46.5239L74.8848 46.9508C74.8848 46.9508 74.9613 46.9699 74.9867 46.9508ZM76.8602 45.8676L77.4974 45.498C77.4974 45.498 77.5229 45.4534 77.4974 45.4406L76.7582 45.0137C76.7582 45.0137 76.6817 44.9946 76.6562 45.0137L76.019 45.3833C76.019 45.3833 75.9935 45.4279 76.019 45.4406L76.7582 45.8676C76.7582 45.8676 76.8347 45.8867 76.8602 45.8676ZM81.1422 37.8769C81.1422 37.8769 81.2187 37.896 81.2442 37.8769L81.8814 37.5073C81.8814 37.5073 81.9069 37.4627 81.8814 37.45L81.6839 37.3353C81.6839 37.3353 81.6074 37.3162 81.5819 37.3353L80.9447 37.7049C80.9447 37.7049 80.9192 37.7495 80.9447 37.7622L81.1422 37.8769ZM76.5415 40.8463C76.5415 40.8463 76.618 40.8654 76.6435 40.8463L77.2807 40.4767C77.2807 40.4767 77.3062 40.4321 77.2807 40.4194L76.5415 39.9925C76.5415 39.9925 76.4651 39.9733 76.4396 39.9925L75.8024 40.362C75.8024 40.362 75.7769 40.4067 75.8024 40.4194L76.5415 40.8463ZM78.415 39.7631C78.415 39.7631 78.4914 39.7822 78.5169 39.7631L79.1541 39.3935C79.1541 39.3935 79.1796 39.3489 79.1541 39.3361L78.415 38.9092C78.415 38.9092 78.3385 38.8901 78.313 38.9092L77.6758 39.2788C77.6758 39.2788 77.6503 39.3234 77.6758 39.3361L78.415 39.7631ZM75.4009 41.5027C75.4009 41.5027 75.4774 41.5218 75.5029 41.5027L76.1401 41.1331C76.1401 41.1331 76.1656 41.0885 76.1401 41.0757L75.4009 40.6488C75.4009 40.6488 75.3245 40.6297 75.299 40.6488L74.6618 41.0184C74.6618 41.0184 74.6363 41.063 74.6618 41.0757L75.4009 41.5027ZM77.4782 40.3047C77.4782 40.3047 77.5547 40.3238 77.5802 40.3047L78.2174 39.9351C78.2174 39.9351 78.2429 39.8905 78.2174 39.8778L77.4782 39.4508C77.4782 39.4508 77.4018 39.4317 77.3763 39.4508L76.7391 39.8204C76.7391 39.8204 76.7136 39.865 76.7391 39.8778L77.4782 40.3047ZM73.5275 42.5859C73.5275 42.5859 73.604 42.605 73.6295 42.5859L74.2667 42.2163C74.2667 42.2163 74.2922 42.1717 74.2667 42.159L73.5275 41.7321C73.5275 41.7321 73.4511 41.7129 73.4256 41.7321L72.7884 42.1016C72.7884 42.1016 72.7629 42.1462 72.7884 42.159L73.5275 42.5859ZM74.4642 42.0443C74.4642 42.0443 74.5407 42.0634 74.5662 42.0443L75.2034 41.6747C75.2034 41.6747 75.2289 41.6301 75.2034 41.6174L74.4642 41.1904C74.4642 41.1904 74.3878 41.1713 74.3623 41.1904L73.7251 41.56C73.7251 41.56 73.6996 41.6046 73.7251 41.6174L74.4642 42.0443ZM79.2752 38.9538C79.2752 38.9538 79.3517 38.9729 79.3771 38.9538L80.0144 38.5842C80.0144 38.5842 80.0398 38.5396 80.0144 38.5269L79.8168 38.4122C79.8168 38.4122 79.7404 38.3931 79.7149 38.4122L79.0777 38.7818C79.0777 38.7818 79.0522 38.8264 79.0777 38.8391L79.2752 38.9538ZM82.0789 37.3353C82.0789 37.3353 82.1554 37.3544 82.1809 37.3353L82.8181 36.9657C82.8181 36.9657 82.8436 36.9211 82.8181 36.9083L82.6206 36.7937C82.6206 36.7937 82.5441 36.7745 82.5186 36.7937L81.8814 37.1632C81.8814 37.1632 81.8559 37.2078 81.8814 37.2206L82.0789 37.3353ZM83.6337 38.2338C83.6337 38.2338 83.7102 38.2529 83.7357 38.2338L84.3729 37.8642C84.3729 37.8642 84.3984 37.8196 84.3729 37.8068L83.6337 37.3799C83.6337 37.3799 83.5573 37.3608 83.5318 37.3799L82.8946 37.7495C82.8946 37.7495 82.8691 37.7941 82.8946 37.8068L83.6337 38.2338ZM85.9723 40.6042L86.6095 40.2346C86.6095 40.2346 86.635 40.19 86.6095 40.1773L85.8703 39.7503C85.8703 39.7503 85.7939 39.7312 85.7684 39.7503L85.1312 40.1199C85.1312 40.1199 85.1057 40.1645 85.1312 40.1773L85.8703 40.6042C85.8703 40.6042 85.9468 40.6233 85.9723 40.6042ZM80.2055 38.4122C80.2055 38.4122 80.282 38.4313 80.3075 38.4122L80.9447 38.0426C80.9447 38.0426 80.9702 37.998 80.9447 37.9852L80.7472 37.8705C80.7472 37.8705 80.6707 37.8514 80.6452 37.8705L80.008 38.2401C80.008 38.2401 79.9825 38.2847 80.008 38.2975L80.2055 38.4122ZM72.5908 43.1212C72.5908 43.1212 72.6673 43.1403 72.6928 43.1212L73.33 42.7516C73.33 42.7516 73.3555 42.707 73.33 42.6942L72.5908 42.2673C72.5908 42.2673 72.5144 42.2482 72.4889 42.2673L71.8517 42.6369C71.8517 42.6369 71.8262 42.6815 71.8517 42.6942L72.5908 43.1212Z" fill="#27DEBF"/>
<path d="M72.126 37.341L64.4794 41.7569L64.4412 41.7378L61.5546 40.0683C61.0576 39.7815 60.739 39.0869 60.8473 38.5262L61.9306 32.9187L68.3027 27.7637L69.5771 28.5028L68.5003 34.1103C68.3919 34.6711 68.7042 35.3656 69.2012 35.6524L72.126 37.341Z" fill="#455A64"/>
<path d="M64.479 41.7565V43.2284L60.4837 40.9217C59.7318 40.4948 59.2539 39.4434 59.4195 38.5959L60.6494 32.1855L61.9302 32.9183L60.8469 38.5258C60.7386 39.0866 61.0572 39.7811 61.5542 40.0679L64.4408 41.7374L64.479 41.7565Z" fill="#263238"/>
<path d="M72.1261 37.3418L64.4795 41.7577V43.236L72.1324 38.8138L72.1261 37.3418Z" fill="#37474F"/>
<path d="M79.1543 0.147245C79.5047 0.351153 79.7915 0.867296 79.7915 1.3006V24.7692C79.7915 25.2025 79.4856 25.7314 79.1097 25.948L49.8488 42.8405C49.4729 43.0572 48.8803 43.0699 48.5298 42.866C48.1793 42.6621 47.8926 42.146 47.8926 41.7127V18.2377C47.8926 17.8044 48.1984 17.2755 48.5744 17.0589L77.8352 0.172733C78.2112 -0.0439191 78.8038 -0.0566634 79.1543 0.147245Z" fill="#455A64"/>
<path d="M49.8488 42.8402C49.4729 43.0569 48.8803 43.0696 48.5298 42.8657C48.1793 42.6618 47.8926 42.1457 47.8926 41.7124V18.2374C47.8926 18.0208 47.969 17.7786 48.0901 17.5684L70.8514 30.7141L49.8424 42.8402H49.8488Z" fill="#263238"/>
<path d="M79.7919 24.7684V1.2998C79.7919 0.866498 79.4861 0.688079 79.1101 0.904731L49.8556 17.7973C49.4797 18.0139 49.1738 18.5428 49.1738 18.9761V42.451C49.1738 42.8843 49.4797 43.0628 49.8556 42.8461L79.1165 25.9536C79.4924 25.7369 79.7983 25.208 79.7983 24.7747L79.7919 24.7684Z" fill="#37474F"/>
<path d="M78.1219 2.21892L50.3522 18.2448C50.0527 18.4169 49.8105 18.8374 49.8105 19.1879V40.0312C49.8105 40.3752 50.0527 40.5218 50.3522 40.3434L78.1219 24.3175C78.4214 24.1454 78.6636 23.7249 78.6636 23.3744V2.53115C78.6636 2.18706 78.4214 2.0405 78.1219 2.21892Z" fill="white"/>
<path d="M39.2974 78.244L22.8254 68.7432C22.3667 68.4819 21.9971 67.8384 21.9971 67.3095V57.267C21.9971 56.7381 22.3667 56.0945 22.8254 55.8333L34.1169 49.3209C34.5757 49.0597 35.3148 49.0597 35.7736 49.3209L52.2328 58.8218C52.6916 59.083 53.0612 59.7266 53.0612 60.2555V70.298C53.0612 70.8269 52.698 71.4705 52.2392 71.7317L40.9542 78.244C40.4954 78.5053 39.7562 78.5053 39.2974 78.244Z" fill="#263238"/>
<path d="M40.9474 66.2904L52.2261 59.7718C52.6849 59.5105 52.6849 59.0772 52.2261 58.8159L35.7669 49.3151C35.3081 49.0538 34.5689 49.0538 34.1101 49.3151L22.8187 55.8274C22.3599 56.0887 22.3599 56.522 22.8187 56.7832L39.2843 66.2904C39.7431 66.5517 40.4823 66.5517 40.941 66.2904H40.9474Z" fill="#455A64"/>
<path d="M40.1254 66.4871V78.4412C39.8259 78.4412 39.5264 78.3711 39.297 78.2437L22.8314 68.7428C22.3726 68.4752 22.003 67.838 22.003 67.3091V57.2602C21.9967 56.8206 22.2707 56.3044 22.6275 55.9922C22.3981 56.2471 22.4555 56.5721 22.825 56.7823L39.297 66.2896C39.5264 66.417 39.8195 66.4871 40.1254 66.4871Z" fill="#37474F"/>
<path d="M26.9544 56.4376C27.2475 56.2656 27.7382 56.2656 28.0441 56.4376L39.8835 63.2749C40.1893 63.4533 40.1957 63.7337 39.9026 63.9058C39.6095 64.0778 39.1188 64.0778 38.813 63.9058L26.9735 57.0685C26.6677 56.89 26.6613 56.6097 26.9544 56.4376Z" fill="#37474F"/>
<path d="M26.9544 56.4376C27.2475 56.2656 27.7382 56.2656 28.0441 56.4376L35.2509 60.5986L34.1804 61.2295L26.9735 57.0685C26.6677 56.89 26.6613 56.6097 26.9544 56.4376Z" fill="#27DEBF"/>
<path d="M29.0062 55.2521C29.2993 55.08 29.7899 55.08 30.0958 55.2521L41.9352 62.0894C42.2411 62.2678 42.2475 62.5482 41.9543 62.7202C41.6612 62.8923 41.1706 62.8923 40.8647 62.7202L29.0253 55.8829C28.7194 55.7045 28.7131 55.4241 29.0062 55.2521Z" fill="#37474F"/>
<path d="M29.0066 55.2521C29.2998 55.08 29.7904 55.08 30.0963 55.2521L31.0648 55.8065L29.9943 56.4373L29.0321 55.8829C28.7263 55.7045 28.7199 55.4241 29.013 55.2521H29.0066Z" fill="#27DEBF"/>
<path d="M31.0579 54.0685C31.3511 53.8964 31.8417 53.8964 32.1476 54.0685L43.987 60.9058C44.2929 61.0842 44.2992 61.3646 44.0061 61.5366C43.713 61.7087 43.2223 61.7087 42.9165 61.5366L31.0771 54.6993C30.7712 54.5209 30.7648 54.2405 31.0579 54.0685Z" fill="#37474F"/>
<path d="M31.0579 54.0685C31.3511 53.8964 31.8417 53.8964 32.1476 54.0685L36.3341 56.4835L35.2635 57.1144L31.0771 54.6993C30.7712 54.5209 30.7648 54.2405 31.0579 54.0685Z" fill="#27DEBF"/>
<path d="M33.1097 52.8829C33.4028 52.7109 33.8935 52.7109 34.1993 52.8829L46.0387 59.7202C46.3446 59.8987 46.351 60.179 46.0579 60.3511C45.7647 60.5231 45.2741 60.5231 44.9682 60.3511L33.1288 53.5138C32.8229 53.3354 32.8166 53.055 33.1097 52.8829Z" fill="#37474F"/>
<path d="M33.1102 52.8829C33.4033 52.7109 33.8939 52.7109 34.1998 52.8829L42.6811 57.7767L41.6106 58.4076L33.1356 53.5138C32.8298 53.3354 32.8234 53.055 33.1165 52.8829H33.1102Z" fill="#27DEBF"/>
<path d="M35.1683 51.6974C35.4614 51.5253 35.9521 51.5253 36.2579 51.6974L48.0973 58.5347C48.4032 58.7131 48.4096 58.9935 48.1165 59.1655C47.8233 59.3376 47.3327 59.3376 47.0268 59.1655L35.1874 52.3282C34.8815 52.1498 34.8752 51.8694 35.1683 51.6974Z" fill="#37474F"/>
<path d="M35.1683 51.6974C35.4614 51.5253 35.9521 51.5253 36.2579 51.6974L46.9185 57.8529L45.848 58.4837L35.1874 52.3282C34.8815 52.1498 34.8752 51.8694 35.1683 51.6974Z" fill="#27DEBF"/>
<path d="M41.4189 74.9749V72.9422C41.4189 72.4133 41.7057 71.8207 42.0689 71.6104C42.4257 71.4065 42.7189 71.6677 42.7189 72.1902V74.2229C42.7189 74.7518 42.4321 75.3444 42.0689 75.5547C41.7121 75.7586 41.4189 75.4974 41.4189 74.9749Z" fill="#37474F"/>
<path d="M42.0939 71.9166C41.8582 72.0504 41.667 72.3881 41.667 72.6621C41.667 72.9361 41.8582 73.0444 42.0939 72.9106C42.3297 72.7768 42.5209 72.4391 42.5209 72.1651C42.5209 71.8911 42.3297 71.7828 42.0939 71.9166Z" fill="#27DEBF"/>
<path d="M43.458 73.803V71.7703C43.458 71.2414 43.7448 70.6488 44.108 70.4385C44.4648 70.2346 44.7579 70.4958 44.7579 71.0184V73.0511C44.7579 73.58 44.4712 74.1726 44.108 74.3828C43.7511 74.5868 43.458 74.3255 43.458 73.803Z" fill="#37474F"/>
<path d="M44.1076 73.0884C43.8718 73.2223 43.6807 73.56 43.6807 73.834C43.6807 74.108 43.8718 74.2163 44.1076 74.0825C44.3434 73.9487 44.5345 73.611 44.5345 73.337C44.5345 73.063 44.3434 72.9546 44.1076 73.0884Z" fill="#27DEBF"/>
<path d="M81.6073 98.9483C81.8494 99.2669 81.894 100.012 82.1425 101.019C82.391 102.026 82.4739 102.803 82.3082 103.294C82.1425 103.785 81.0656 104.893 79.7402 105.301C78.4148 105.709 76.7835 105.365 75.2096 104.422C73.6357 103.479 72.4441 102.332 70.1948 101.695C67.9518 101.057 66.8239 100.535 65.7598 99.6811C64.5172 98.6807 63.7143 97.1832 66.0911 96.546C68.4934 95.9024 72.7946 96.8965 77.51 97.1004L81.6073 98.9419V98.9483Z" fill="#263238"/>
<path d="M81.6073 95.998V99.5282C81.6073 99.5282 81.123 100.701 79.1094 100.777C77.8796 100.822 76.9875 100.261 76.4395 99.4964V95.998H81.6073Z" fill="#FFA8A7"/>
<path d="M74.8656 72.9048C74.8401 77.2952 76.1018 97.5458 76.1018 97.5458C76.1018 97.5458 77.8987 99.8207 81.7985 97.5458L83.1239 75.0713L74.872 72.8984L74.8656 72.9048Z" fill="#37474F"/>
<path d="M71.0106 105.849C71.2527 106.167 71.2973 106.913 71.5458 107.92C71.7943 108.926 71.8772 109.704 71.7115 110.194C71.5458 110.685 70.4689 111.794 69.1435 112.202C67.8181 112.61 66.1869 112.265 64.613 111.322C63.039 110.379 61.8474 109.232 59.5981 108.595C57.3551 107.958 56.2272 107.435 55.1631 106.581C53.9205 105.581 53.1176 104.084 55.4944 103.446C57.8967 102.803 62.1979 103.797 66.9133 104.001L71.0106 105.842V105.849Z" fill="#263238"/>
<path d="M71.0106 102.904V106.434C71.0106 106.434 70.5263 107.607 68.5127 107.683C67.2829 107.728 66.3908 107.167 65.8428 106.403V102.904H71.0106Z" fill="#FFA8A7"/>
<path d="M64.2689 79.8052C64.2434 84.1956 65.5051 104.446 65.5051 104.446C65.5051 104.446 67.3021 106.721 71.2018 104.446L72.5272 81.9717L64.2753 79.7988L64.2689 79.8052Z" fill="#37474F"/>
<path d="M77.9238 121.485C77.9238 121.663 77.9429 121.829 77.9748 121.975C78.0513 122.288 78.2106 122.523 78.4209 122.663L78.4336 122.676C78.7777 122.899 79.2683 122.88 79.8036 122.568C80.8423 121.969 81.6834 120.51 81.6834 119.312C81.6834 118.732 81.4795 118.324 81.1545 118.12L81.0653 118.063C80.8359 117.961 80.5683 117.948 80.2624 118.031C80.1158 118.076 79.9629 118.139 79.8036 118.235C78.7649 118.834 77.9238 120.293 77.9238 121.491V121.485Z" fill="#455A64"/>
<path d="M78.434 117.438C78.7335 117.266 79.0139 117.184 79.2688 117.184C79.4663 117.184 79.6447 117.235 79.7976 117.33L79.8422 117.356L81.0529 118.057C80.8236 117.955 80.5559 117.942 80.2501 118.025C80.1035 118.069 79.9506 118.133 79.7913 118.229C78.7526 118.828 77.9115 120.287 77.9115 121.485C77.9115 121.663 77.9306 121.829 77.9625 121.975C78.0389 122.288 78.1982 122.523 78.4085 122.664L77.1659 121.944L77.1468 121.931L77.0385 121.867C77.0385 121.867 77.0194 121.854 77.0066 121.848C76.7199 121.638 76.5479 121.236 76.5479 120.695C76.5479 119.497 77.389 118.037 78.4276 117.438H78.434Z" fill="#263238"/>
<path d="M98.2764 110.543C98.2764 110.722 98.2955 110.887 98.3273 111.034C98.4038 111.346 98.5631 111.582 98.7734 111.722L98.7861 111.735C99.1302 111.958 99.6209 111.939 100.156 111.626C101.195 111.028 102.036 109.568 102.036 108.37C102.036 107.79 101.832 107.383 101.507 107.179L101.418 107.121C101.188 107.019 100.921 107.007 100.615 107.09C100.468 107.134 100.315 107.198 100.156 107.293C99.1175 107.892 98.2764 109.352 98.2764 110.55V110.543Z" fill="#455A64"/>
<path d="M98.7865 106.497C99.086 106.325 99.3664 106.242 99.6213 106.242C99.8188 106.242 99.9972 106.293 100.15 106.389L100.195 106.414L101.405 107.115C101.176 107.013 100.908 107 100.603 107.083C100.456 107.128 100.303 107.192 100.144 107.287C99.1051 107.886 98.264 109.345 98.264 110.543C98.264 110.722 98.2831 110.887 98.315 111.034C98.3915 111.346 98.5508 111.582 98.7611 111.722L97.5185 111.002L97.4994 110.989L97.391 110.926C97.391 110.926 97.3719 110.913 97.3592 110.907C97.0724 110.696 96.9004 110.295 96.9004 109.753C96.9004 108.555 97.7415 107.096 98.7802 106.497H98.7865Z" fill="#263238"/>
<path d="M94.6443 125.76C94.6443 125.938 94.6252 126.104 94.5933 126.251C94.5169 126.563 94.3576 126.799 94.1473 126.939L94.1345 126.952C93.7905 127.175 93.2998 127.156 92.7645 126.843C91.7259 126.244 90.8848 124.785 90.8848 123.587C90.8848 123.007 91.0887 122.599 91.4137 122.396L91.5029 122.338C91.7323 122.236 91.9999 122.223 92.3057 122.306C92.4523 122.351 92.6052 122.415 92.7645 122.51C93.8032 123.109 94.6443 124.568 94.6443 125.766V125.76Z" fill="#455A64"/>
<path d="M94.1277 121.714C93.8282 121.542 93.5479 121.459 93.293 121.459C93.0955 121.459 92.917 121.51 92.7641 121.606L92.7195 121.631L91.5088 122.332C91.7382 122.23 92.0058 122.217 92.3117 122.3C92.4582 122.345 92.6112 122.408 92.7705 122.504C93.8091 123.103 94.6502 124.562 94.6502 125.76C94.6502 125.939 94.6311 126.104 94.5993 126.251C94.5228 126.563 94.3635 126.799 94.1532 126.939L95.3958 126.219L95.4149 126.206L95.5232 126.143C95.5232 126.143 95.5424 126.13 95.5551 126.123C95.8418 125.913 96.0139 125.512 96.0139 124.97C96.0139 123.772 95.1728 122.313 94.1341 121.714H94.1277Z" fill="#263238"/>
<path d="M107.854 119.285C107.854 119.464 107.835 119.63 107.803 119.776C107.727 120.088 107.568 120.324 107.357 120.464L107.345 120.477C107 120.7 106.51 120.681 105.975 120.369C104.936 119.77 104.095 118.31 104.095 117.113C104.095 116.533 104.299 116.125 104.624 115.921L104.713 115.864C104.942 115.762 105.21 115.749 105.516 115.832C105.662 115.876 105.815 115.94 105.975 116.036C107.013 116.635 107.854 118.094 107.854 119.292V119.285Z" fill="#455A64"/>
<path d="M107.338 115.245C107.038 115.073 106.758 114.99 106.503 114.99C106.305 114.99 106.127 115.041 105.974 115.137L105.929 115.162L104.719 115.863C104.948 115.761 105.216 115.749 105.522 115.831C105.668 115.876 105.821 115.94 105.98 116.035C107.019 116.634 107.86 118.093 107.86 119.291C107.86 119.47 107.841 119.636 107.809 119.782C107.733 120.094 107.573 120.33 107.363 120.47L108.606 119.75L108.625 119.737L108.733 119.674C108.733 119.674 108.752 119.661 108.765 119.655C109.052 119.444 109.224 119.043 109.224 118.501C109.224 117.303 108.383 115.844 107.344 115.245H107.338Z" fill="#263238"/>
<path d="M82.3211 111.352C82.3211 111.53 82.302 111.696 82.2701 111.842C82.1936 112.155 82.0343 112.39 81.8241 112.531L81.8113 112.543C81.4672 112.766 80.9766 112.747 80.4413 112.435C79.4026 111.836 78.5615 110.377 78.5615 109.179C78.5615 108.599 78.7654 108.191 79.0904 107.987L79.1796 107.93C79.409 107.828 79.6766 107.815 79.9825 107.898C80.1291 107.943 80.282 108.006 80.4413 108.102C81.48 108.701 82.3211 110.16 82.3211 111.358V111.352Z" fill="#455A64"/>
<path d="M81.8045 107.306C81.505 107.134 81.2246 107.051 80.9697 107.051C80.7722 107.051 80.5938 107.102 80.4409 107.197L80.3963 107.223L79.1855 107.924C79.4149 107.822 79.6826 107.809 79.9884 107.892C80.135 107.937 80.2879 108 80.4472 108.096C81.4859 108.695 82.327 110.154 82.327 111.352C82.327 111.53 82.3079 111.696 82.276 111.843C82.1996 112.155 82.0403 112.391 81.83 112.531L83.0725 111.811L83.0917 111.798L83.2 111.734C83.2 111.734 83.2191 111.722 83.2318 111.715C83.5186 111.505 83.6906 111.103 83.6906 110.562C83.6906 109.364 82.8495 107.905 81.8109 107.306H81.8045Z" fill="#263238"/>
<path d="M93.5488 107.37L100.265 105.445V106.879L93.5488 110.753V107.37Z" fill="#F5F5F5"/>
<path d="M93.5484 107.37L92.8857 106.968L99.6211 105.127L100.265 105.446L93.5484 107.37Z" fill="#FAFAFA"/>
<path d="M90.643 111.654L81.123 108.085V106.639L90.643 107.486V111.654Z" fill="#F5F5F5"/>
<path d="M81.123 106.638L81.8176 106.453L91.2101 107.058L90.643 107.485L81.123 106.638Z" fill="#FAFAFA"/>
<path d="M90.3877 111.193C90.3877 112.27 93.7012 112.27 93.7012 111.193V101.775H90.3877V111.193Z" fill="#FAFAFA"/>
<path d="M92.8734 108.746L94.6959 120.573H93.4533L91.752 108.746C92.1789 108.867 92.5421 108.835 92.8798 108.746H92.8734Z" fill="#FAFAFA"/>
<path d="M91.7451 108.746V111.99L93.4465 122.574V120.566L91.7451 108.746Z" fill="#F5F5F5"/>
<path d="M94.6889 120.566H93.4463V122.567H94.6889V120.566Z" fill="#EBEBEB"/>
<path d="M91.1785 111.895L78.8994 118.331V116.349L91.1785 108.754V111.895Z" fill="#F5F5F5"/>
<path d="M91.1781 108.753C90.8849 108.709 90.6109 108.613 90.3879 108.396L78.1279 115.833L78.8926 116.349L91.1717 108.753H91.1781Z" fill="#FAFAFA"/>
<path d="M78.899 118.33V116.348L78.1279 115.832V117.756L78.899 118.33Z" fill="#EBEBEB"/>
<path d="M106.656 116.062L93.5361 111.569V108.619L106.656 114.08V116.062Z" fill="#F5F5F5"/>
<path d="M93.5357 108.619C93.644 108.587 93.6886 108.402 93.695 108.109L107.038 113.914L106.65 114.074L93.5293 108.619H93.5357Z" fill="#FAFAFA"/>
<path d="M107.045 113.92V115.838L106.656 116.061V114.079L107.045 113.92Z" fill="#EBEBEB"/>
<path d="M94.8487 85.373H89.2412V104.795C89.2412 106.407 94.8487 106.407 94.8487 104.795V85.373Z" fill="#F0F0F0"/>
<path d="M70.4434 87.1135C70.4434 86.1131 70.9786 85.1891 71.8452 84.6857L91.4714 73.3561C92.338 72.8527 93.4085 72.8527 94.2751 73.3561L113.895 84.6857C114.762 85.1891 115.297 86.1131 115.297 87.1135L92.8733 100.062L70.4497 87.1135H70.4434Z" fill="#27DEBF"/>
<path d="M70.4434 87.1133V88.7318L91.4841 100.877C91.9111 101.126 92.389 101.247 92.8669 101.247C93.3448 101.247 93.8291 101.126 94.256 100.877L115.297 88.7318V87.1133L94.256 99.2586C93.8291 99.5071 93.3512 99.6345 92.8669 99.6345C92.3826 99.6345 91.9111 99.5071 91.4841 99.2586L70.4434 87.1133Z" fill="#FAFAFA"/>
<path d="M70.4434 87.1138V88.7323L91.4841 100.878C91.9111 101.126 92.389 101.247 92.8669 101.247V99.6287C92.389 99.6287 91.9111 99.5012 91.4841 99.2527L70.4434 87.1074V87.1138Z" fill="#F5F5F5"/>
<path opacity="0.1" d="M70.4434 87.1142C70.4434 86.6745 70.5517 86.2476 70.7428 85.8652L91.9429 98.1061C92.5164 98.4375 93.2174 98.4375 93.7909 98.1061L114.997 85.8716C115.188 86.2539 115.297 86.6745 115.297 87.1142L92.8733 100.062L70.4497 87.1142H70.4434Z" fill="black"/>
<path d="M108.504 78.2828C108.504 78.2828 90.2987 72.79 87.1382 71.9234C83.9712 71.0568 77.9049 69.5976 76.1271 70.3941C74.3493 71.1906 73.4508 72.1082 73.2915 74.6698C73.2596 75.1477 73.2915 77.4927 73.2915 77.4927C73.2915 77.4927 82.0914 80.2136 89.2983 80.2136C96.5052 80.2136 108.504 78.2828 108.504 78.2828Z" fill="#263238"/>
<path d="M92.9492 47.3464L94.1599 53.8715L100.851 54.6489L99.8821 45.6387L92.9492 47.3464Z" fill="#FFA8A7"/>
<path d="M86.7054 42.1333C86.7054 42.1333 85.826 44.8224 86.0937 44.988C86.3613 45.1537 87.5592 45.0709 87.5592 45.0709L86.7054 42.127V42.1333Z" fill="#F28F8F"/>
<path d="M88.4256 33.5047C87.2722 34.7154 86.1762 36.7481 86.6605 41.8905C87.1894 47.5234 88.8716 49.0272 89.5853 49.3586C90.643 49.8556 94.256 48.989 95.4285 48.1224C96.8941 47.0391 99.6596 44.3437 100.38 41.0238C101.227 37.1177 100.144 32.6827 97.2892 31.7843C93.2747 30.5226 89.4005 32.4724 88.4256 33.4984V33.5047Z" fill="#FFA8A7"/>
<path d="M85.7941 36.2774C86.4759 37.5709 87.7695 40.7761 91.4335 41.6873C91.4335 41.6873 91.6374 39.5017 93.447 39.4762C95.2695 39.4571 95.8812 41.6873 94.9764 43.2485C94.0779 44.8097 92.9437 44.4465 92.9437 44.4465C92.9437 44.4465 93.1221 47.5178 95.3459 48.6138C95.3459 48.6138 98.0095 49.8246 100.444 48.2761C101.54 47.5752 102.801 44.5548 103.451 42.127C104.834 36.9911 104.586 33.0531 101.317 32.2566C100.628 30.1028 99.5261 29.4082 97.4679 29.2744C93.0456 28.9813 90.1845 32.2566 86.5078 32.2566C84.5898 32.2566 85.0103 34.7991 85.7941 36.271V36.2774Z" fill="#263238"/>
<path d="M101.24 32.6331L103.451 31.6836C103.19 31.0719 102.483 30.7915 101.871 31.0528C101.259 31.314 100.979 32.0213 101.24 32.6331Z" fill="#263238"/>
<path d="M108.459 76.0966C108.459 79.5949 108.791 83.2334 107.332 85.795C105.923 88.2737 99.2708 93.6327 91.8282 92.3774C86.9662 91.5617 71.2653 85.5719 71.2653 85.5719C71.2653 85.5719 64.3133 83.004 64.2815 81.1752C64.2751 80.7291 64.2305 80.264 64.2623 79.7797C64.4089 77.3455 65.3902 74.7266 70.4815 74.8604C76.038 75.0069 92.5227 77.7087 92.5227 77.7087L108.459 76.0966Z" fill="#37474F"/>
<path d="M107.166 53.4945C106.567 51.6657 104.248 49.6776 101.928 50.1109C97.6719 50.9011 93.0075 52.2838 91.7713 52.647C91.7713 52.647 92.3256 62.0332 87.5083 64.8752L86.8711 76.8293C86.8711 76.8293 88.0627 79.2125 89.9042 80.3786C91.8923 81.6402 94.6642 83.5391 99.6663 83.1249C105.605 82.6343 108.504 78.2885 108.504 78.2885C108.504 78.2885 108.454 66.9907 108.262 61.9376C108.103 57.6428 107.581 54.7498 107.166 53.4945Z" fill="#455A64"/>
<path d="M87.3928 67.1882C87.3928 67.1882 89.9098 64.5756 90.7955 61.5488C90.7955 61.5488 90.7955 65.9838 87.3418 68.3734L87.3928 67.1882Z" fill="#37474F"/>
<path d="M91.7774 52.6406C89.1457 53.4308 87.5463 53.571 84.6406 58.0442C81.7349 62.5111 75.3692 71.3811 74.7447 72.4452C73.8654 73.9299 73.4894 75.6886 74.2477 77.0523C74.955 78.3203 77.0132 77.7659 79.8934 75.2362C82.678 72.7893 88.2027 65.8692 88.2027 65.8692C88.2027 65.8692 91.0829 59.5671 91.7774 52.6406Z" fill="#FFA8A7"/>
<path d="M91.7776 52.6411C91.7776 52.6411 89.4327 53.1318 87.9798 53.8455C87.5338 54.0621 86.0554 54.6292 85.106 56.2032C83.0733 59.5804 80.1676 64.385 80.1676 64.385C80.1676 64.385 79.6706 68.5715 84.7555 70.0307L87.4573 67.1122C88.5597 65.9207 89.4773 64.5761 90.1527 63.0978C91.2997 60.5808 92.606 56.5855 91.7776 52.6348V52.6411Z" fill="#455A64"/>
<path d="M75.1268 77.6776C72.6927 77.3845 67.2445 69.9164 65.4285 67.5396C63.6124 65.1628 62.0895 63.7545 60.4518 62.856C58.8142 61.9576 57.3932 60.5366 56.9472 57.6755C56.533 55.012 59.0117 53.3106 61.0444 55.9933C62.3316 57.6946 63.6315 58.7651 63.7016 58.4848C63.7717 58.198 63.3002 57.0192 63.3129 55.783C63.3257 54.2983 64.3643 55.2732 64.6765 55.7957C64.9888 56.3182 65.352 57.1594 65.7726 58.249C66.2887 59.5744 66.0784 60.9189 66.7093 61.8301C67.3401 62.735 75.815 70.8531 75.815 70.8531L75.1268 77.684V77.6776Z" fill="#FFA8A7"/>
<path d="M116.386 54.7383V79.7999L96.4863 91.3334V66.2846L116.386 54.7383Z" fill="#27DEBF"/>
<path opacity="0.1" d="M116.386 54.7383V79.7999L96.4863 91.3334V66.2846L116.386 54.7383Z" fill="black"/>
<path d="M94.6768 90.2877L96.4864 91.3327C96.4864 91.3327 96.4864 71.5728 96.4864 68.3612C96.4864 67.2716 96.8178 66.7299 97.2511 66.4942C98.7677 65.5575 100.775 67.5456 100.775 67.5456V65.8761L120 54.744C118.19 53.6989 117.005 53.0171 113.353 55.0881C109.702 57.159 98.9971 63.3527 97.3021 64.3977C95.9448 65.2325 94.6768 66.2138 94.6768 68.4887C94.6768 72.433 94.6768 90.3005 94.6768 90.3005V90.2877Z" fill="#27DEBF"/>
<path opacity="0.4" d="M97.3018 64.3857C98.9713 63.3025 109.708 57.147 113.353 55.076C117.004 53.0051 118.19 53.6933 119.999 54.7319L100.781 65.8641C100.131 65.144 98.8247 64.3602 97.3081 64.3794L97.3018 64.3857Z" fill="white"/>
<path d="M100.774 67.5399L119.999 56.3632V54.7383L100.781 65.8704L100.774 67.5399Z" fill="#27DEBF"/>
<path opacity="0.2" d="M100.774 67.5399L119.999 56.3632V54.7383L100.781 65.8704L100.774 67.5399Z" fill="black"/>
<path d="M101.062 99.3052C101.361 99.3052 101.66 99.2288 101.934 99.0695C102.476 98.7572 102.807 98.1901 102.807 97.5593V84.4136C102.807 83.9229 102.406 83.5215 101.915 83.5215C101.425 83.5215 101.023 83.9229 101.023 84.4136V97.4892L99.6087 96.6736C99.1817 96.4251 98.6401 96.5716 98.3916 96.9985C98.1431 97.4255 98.2896 97.9671 98.7166 98.2156L100.195 99.0695C100.469 99.2288 100.768 99.3052 101.068 99.3052H101.062Z" fill="#E6E6E6"/>
<path d="M111.938 92.9654C112.238 92.9654 112.537 92.8889 112.811 92.7296C113.353 92.4174 113.684 91.8503 113.684 91.2194V78.0737C113.684 77.5831 113.283 77.1816 112.792 77.1816C112.302 77.1816 111.9 77.5831 111.9 78.0737V91.1493L110.486 90.3337C110.059 90.0852 109.517 90.2318 109.269 90.6587C109.02 91.0856 109.167 91.6273 109.594 91.8758L111.072 92.7296C111.346 92.8889 111.645 92.9654 111.945 92.9654H111.938Z" fill="#E6E6E6"/>
</g>
<defs>
<clipPath id="clip0_354_151">
<rect width="120" height="127.099" fill="white"/>
</clipPath>
</defs>
</svg>
