<?xml version="1.0" encoding="utf-8"?>
<!-- Generator: Adobe Illustrator 27.0.1, SVG Export Plug-In . SVG Version: 6.00 Build 0)  -->
<svg version="1.1" id="uuid-1c487f01-13e4-4fb9-8add-ebb57d00e1a4"
	 xmlns="http://www.w3.org/2000/svg" xmlns:xlink="http://www.w3.org/1999/xlink" x="0px" y="0px" viewBox="0 0 512 512"
	 style="enable-background:new 0 0 512 512;" xml:space="preserve">
<style type="text/css">
	.st0{fill:#E53636;}
</style>
<path class="st0" d="M479.5,221.5c-2.5-55.9-25.6-108.4-65.2-148C372,31.2,315.8,7.9,256,7.9c-58.3,0-113.5,22.4-155.4,63
	c-41.3,40-65.4,93.4-68,150.6C13.7,230.7,1.6,250,1.6,271v58.1c0,30.5,24.8,55.2,55.2,55.2c20.4,0,37-16.6,37-37v-94.6
	c0-17.9-12.7-32.8-30-36.1C71.6,116.7,155.4,38.9,256,38.9c51.5,0,99.9,20.1,136.3,56.5c32.9,32.9,52.1,74.8,55.8,121.2
	c-17.3,3.3-29.9,18.3-29.9,36.1v94.6c0,18.2,12.9,33.2,30.6,36.3v20.8c0,25-20.3,45.3-45.3,45.3h-33.8c-2-4.8-4.8-9.1-8.4-12.6
	c-7.5-7.5-17.5-11.7-28.2-11.7h-37.3c-5.9,0-11.5,1.2-16.7,3.6c-14.1,6.5-23.2,20.7-23.2,36.2c0,10.7,4.1,20.6,11.7,28.1
	c7.5,7.5,17.5,11.7,28.1,11.7h37.3c15.9,0,30.3-9.7,36.5-24.3h33.8c42.1,0,76.3-34.2,76.3-76.3v-26c18.7-9.3,30.6-28.5,30.6-49.4
	V271C510.4,250,498.3,230.7,479.5,221.5z M449.1,347.4v-94.6c0-3.3,2.7-6,6-6c13.4,0,24.2,10.9,24.2,24.2v58.1
	c0,13.4-10.9,24.2-24.2,24.2C451.8,353.3,449.1,350.7,449.1,347.4z M62.9,252.7v94.6c0,3.3-2.7,6-6,6c-13.4,0-24.2-10.9-24.2-24.2
	V271c0-13.4,10.9-24.2,24.2-24.2C60.2,246.8,62.9,249.4,62.9,252.7z M341.9,465.3c0,0.6-0.1,1.2-0.2,1.8c-0.9,4-4.5,7-8.6,7h-37.3
	c-2.3,0-4.6-0.9-6.2-2.6c-1.7-1.7-2.6-3.9-2.6-6.2c0-3.4,2-6.6,5.2-8c1.1-0.5,2.3-0.8,3.6-0.8h37.3c2.3,0,4.6,0.9,6.2,2.6
	C341,460.8,341.9,463,341.9,465.3z"/>
</svg>
