<?xml version="1.0" encoding="utf-8"?>
<!-- Generator: Adobe Illustrator 27.0.1, SVG Export Plug-In . SVG Version: 6.00 Build 0)  -->
<svg version="1.1" id="Layer_1" xmlns="http://www.w3.org/2000/svg" xmlns:xlink="http://www.w3.org/1999/xlink" x="0px" y="0px"
	 viewBox="0 0 525.4 512" style="enable-background:new 0 0 525.4 512;" xml:space="preserve">
<style type="text/css">
	.st0{fill:#E53636;}
</style>
<g>
	<path class="st0" d="M488.8,244.5c-21.5-23.4-50.6-37.9-82-40.9c0-0.4,0-0.9,0-1.3V91.8c0-25.4-22.6-48.4-63.7-64.5
		C305.7,12.6,256.4,4.4,204.2,4.4c-52.1,0-101.5,8.1-138.8,22.8C24.3,43.5,1.7,66.4,1.7,91.8v329.4c0,25.5,22.6,48.4,63.6,64.6
		c37.3,14.7,86.7,22.8,139,22.8c39.9,0,78.2-4.7,110.8-13.5c31.9-8.6,57-20.9,72.7-35.5c2.2,0.1,4.4,0.2,6.6,0.2
		c70.8,0,128.4-57.6,128.4-128.4C522.7,299.1,510.7,268.3,488.8,244.5z M394.3,434.8c-57,0-103.4-46.4-103.4-103.4
		c0-27,10.4-52.6,29.3-72.1c18.9-19.4,44.1-30.5,70.8-31.3l0.3,0c0.2,0,0.4,0,0.6,0c0.8,0,1.6,0,2.3,0c57,0,103.4,46.4,103.4,103.4
		C497.7,388.4,451.3,434.8,394.3,434.8z M204.2,29.5c49.1,0,95.1,7.5,129.7,21.1c30,11.8,47.8,27.2,47.8,41.3
		c0,14-17.9,29.5-47.8,41.3c-34.5,13.6-80.6,21.1-129.7,21.1c-49.1,0-95.1-7.5-129.7-21.1c-30-11.8-47.9-27.2-47.9-41.3
		c0-14,17.9-29.5,47.8-41.3C109.1,36.9,155.1,29.5,204.2,29.5z M343.1,156.4c15.6-6.1,28.6-13.3,38.7-21.2v67.1c0,0.4,0,0.9-0.1,1.3
		c-36.6,3.6-69.9,22.7-91.6,52.8c-26.3,5.5-56,8.3-85.9,8.3c-49.2,0-95.3-7.5-129.8-21.1c-29.9-11.8-47.7-27.2-47.7-41.3v-67.1
		c10.1,7.9,23.1,15,38.7,21.2c37.4,14.7,86.7,22.9,138.9,22.9C256.4,179.2,305.7,171.1,343.1,156.4z M274.7,284.5
		c-5.9,14.9-8.9,30.7-8.9,46.9c0,12.9,1.9,25.6,5.7,37.8c-21.3,3.3-43.9,5-67.3,5c-49.2,0-95.3-7.5-129.8-21.1
		c-29.9-11.8-47.7-27.2-47.7-41.3l0-66c10.1,7.9,23,15,38.6,21.1c37.3,14.7,86.7,22.8,139,22.8C228.1,289.7,252.4,287.9,274.7,284.5
		z M26.7,355.3c10.1,7.9,23,15,38.6,21.1c37.3,14.7,86.7,22.8,139,22.8c27,0,53-2.1,77.4-6.3c15.8,28.8,41.3,50.1,72.3,60.4
		c-33.4,19-89,30.3-149.7,30.3c-49.2,0-95.3-7.5-129.8-21.1c-29.9-11.8-47.7-27.2-47.7-41.3V355.3z"/>
	<path class="st0" d="M394.3,250.8c-19.1,0-37.6,6.9-52.2,19.3c-10.3,8.8-18.2,20-23,32.5c-1.9-2.6-4.7-4.3-7.9-4.8
		c-3.3-0.5-6.6,0.2-9.3,2.2c-2.7,1.9-4.5,4.8-5.1,8.1c-0.5,3.3,0.2,6.6,2.2,9.3l16.5,23.1c2.3,3.3,6.1,5.2,10.2,5.2
		c2.6,0,5.1-0.8,7.3-2.3L356,327c2.7-1.9,4.5-4.8,5.1-8.1s-0.2-6.6-2.2-9.3c-1.9-2.7-4.8-4.5-8.1-5.1c-1.8-0.3-3.5-0.2-5.2,0.2
		c9.7-17.7,28.4-28.9,48.7-28.9c30.6,0,55.5,24.9,55.5,55.5c0,15.2-6,29.4-16.8,40c-10.2,10-23.5,15.5-37.6,15.5c-0.3,0-0.6,0-1,0
		c-15.4-0.2-29.7-6.5-40.3-17.5c-2.3-2.4-5.4-3.8-8.8-3.8c-3.3-0.1-6.5,1.2-8.9,3.5c-5,4.8-5.1,12.7-0.3,17.7
		c15.3,15.8,35.8,24.8,57.8,25.1c0.5,0,0.9,0,1.4,0c20.6,0,40.2-8.1,55.1-22.7c15.6-15.4,24.2-35.9,24.2-57.9
		C474.8,287,438.7,250.8,394.3,250.8z"/>
</g>
</svg>
