<svg width="512" height="512" viewBox="0 0 512 512" fill="none" xmlns="http://www.w3.org/2000/svg">
<path d="M426 495.983H86C60.636 495.983 40 475.348 40 449.983V207.963C40 199.127 47.163 191.963 56 191.963C64.837 191.963 72 199.127 72 207.963V449.983C72 457.703 78.28 463.983 86 463.983H426C433.72 463.983 440 457.703 440 449.983V207.963C440 199.127 447.163 191.963 456 191.963C464.837 191.963 472 199.127 472 207.963V449.983C472 475.347 451.365 495.983 426 495.983Z" fill="white"/>
<path d="M496 263.958C491.905 263.958 487.811 262.396 484.687 259.271L285.698 60.2836C269.323 43.9076 242.678 43.9076 226.302 60.2836L27.3142 259.272C21.0662 265.521 10.9352 265.521 4.68724 259.272C-1.56176 253.024 -1.56176 242.893 4.68724 236.645L203.675 37.6556C232.527 8.8036 279.474 8.8036 308.325 37.6556L507.313 236.644C513.562 242.893 513.562 253.023 507.313 259.271C504.19 262.396 500.095 263.958 496 263.958Z" fill="white"/>
<path d="M320 495.982H192C183.163 495.982 176 488.818 176 479.982V337.982C176 310.412 198.43 287.982 226 287.982H286C313.57 287.982 336 310.412 336 337.982V479.982C336 488.818 328.837 495.982 320 495.982ZM208 463.982H304V337.982C304 328.057 295.925 319.982 286 319.982H226C216.075 319.982 208 328.057 208 337.982V463.982Z" fill="white"/>
</svg>
