<svg width="64" height="64" viewBox="0 0 64 64" fill="none" xmlns="http://www.w3.org/2000/svg">
<g clip-path="url(#clip0_339_1090)">
<path d="M23.0986 64H0.901375C0.403625 64 0 63.5964 0 63.0986V40.9014C0 40.4036 0.403625 40 0.901375 40H23.0985C23.5964 40 23.9999 40.4036 23.9999 40.9014V63.0985C24 63.5964 23.5964 64 23.0986 64Z" fill="#F7C1C1"/>
<path d="M6.25 63.0986V40.9014C6.25 40.4035 6.65363 40 7.15137 40H0.901375C0.403625 40 0 40.4036 0 40.9014V63.0985C0 63.5964 0.403625 64 0.901375 64H7.15137C6.65363 64 6.25 63.5964 6.25 63.0986Z" fill="#ED7474"/>
<path d="M63.0986 0H12.9014C12.4036 0 12 0.403625 12 0.901375V51.0985C12 51.5964 12.4036 51.9999 12.9014 51.9999H63.0985C63.5964 51.9999 63.9999 51.5962 63.9999 51.0985V0.901375C64 0.403625 63.5964 0 63.0986 0Z" fill="#E22525"/>
<path d="M18.25 51.0986V0.901375C18.25 0.403625 18.6536 0 19.1514 0H12.9014C12.4036 0 12 0.403625 12 0.901375V51.0985C12 51.5964 12.4036 51.9999 12.9014 51.9999H19.1514C18.6536 52 18.25 51.5964 18.25 51.0986Z" fill="#B81818"/>
<path d="M57.9998 3.98438H43.9998C42.8866 3.98438 41.9844 4.88662 41.9844 5.99962C41.9844 7.11263 42.8866 8.01488 43.9998 8.01488H53.1344L28.5746 32.5746C27.7876 33.3616 27.7876 34.6377 28.5746 35.4247C28.9681 35.8182 29.4839 36.015 29.9996 36.015C30.5154 36.015 31.0311 35.8182 31.4246 35.4247L55.9844 10.865V19.9996C55.9844 21.1126 56.8866 22.0149 57.9998 22.0149C59.1128 22.0149 60.0151 21.1126 60.0151 19.9996V5.99962C60.015 4.83912 59.3105 3.98438 57.9998 3.98438Z" fill="#EEF7FE"/>
<path d="M43.9997 8.01488H46.5752C45.4621 8.01488 44.5599 7.11263 44.5599 5.99962C44.5599 4.88662 45.4621 3.98438 46.5752 3.98438H43.9997C42.8866 3.98438 41.9844 4.88662 41.9844 5.99962C41.9844 7.11263 42.8866 8.01488 43.9997 8.01488Z" fill="#DBE8F7"/>
<path d="M31.1501 35.4245C30.3631 34.6375 30.3631 33.3614 31.1501 32.5744L53.8886 9.83577C54.5606 9.16377 54.0847 8.01465 53.1342 8.01465L28.5746 32.5744C27.7876 33.3614 27.7876 34.6375 28.5746 35.4245C28.9681 35.818 29.4839 36.0148 29.9996 36.0148C30.4576 36.0148 30.915 35.8589 31.2874 35.5486C31.2405 35.5094 31.1943 35.4686 31.1501 35.4245Z" fill="#DBE8F7"/>
</g>
<defs>
<clipPath id="clip0_339_1090">
<rect width="64" height="64" fill="white"/>
</clipPath>
</defs>
</svg>
