<svg width="64" height="64" viewBox="0 0 64 64" fill="none" xmlns="http://www.w3.org/2000/svg">
<path d="M56.5196 9.14286C55.6842 4.04343 43.7493 0 29.1424 0C14.5356 0 2.60072 4.04343 1.7653 9.14286H1.71387V9.71429V22.8571V23.4286V24V36.5714V37.1429V37.7143V51.4286H1.7653C2.60072 56.5269 14.5367 60.5714 29.1424 60.5714C43.7482 60.5714 55.6842 56.5269 56.5196 51.4286H56.571V37.7143V37.1429V36.5714V24V23.4286V22.8571V9.71429V9.14286H56.5196Z" fill="#545E73"/>
<path d="M29.1424 46.8569C13.9939 46.8569 1.71387 42.5071 1.71387 37.1426V51.4283H1.7653C2.60072 56.5266 14.5367 60.5711 29.1424 60.5711C43.7482 60.5711 55.6842 56.5266 56.5196 51.4283H56.571V37.1426C56.571 42.5071 44.291 46.8569 29.1424 46.8569Z" fill="#E22525"/>
<path d="M1.71387 36.5713V37.1427C1.71387 36.9507 1.73444 36.761 1.7653 36.5713H1.71387Z" fill="#38454F"/>
<path d="M56.5195 36.5713C56.5504 36.761 56.571 36.9507 56.571 37.1427V36.5713H56.5195Z" fill="#38454F"/>
<path d="M29.1424 33.143C13.9939 33.143 1.71387 28.7933 1.71387 23.4287V37.7144H1.7653C2.60072 42.8127 14.5367 46.8573 29.1424 46.8573C43.7482 46.8573 55.6842 42.8127 56.5196 37.7144H56.571V23.4287C56.571 28.7933 44.291 33.143 29.1424 33.143Z" fill="#E95555"/>
<path d="M1.71387 22.8574V23.4289C1.71387 23.2369 1.73444 23.0471 1.7653 22.8574H1.71387Z" fill="#556080"/>
<path d="M56.5195 22.8574C56.5504 23.0471 56.571 23.2369 56.571 23.4289V22.8574H56.5195Z" fill="#556080"/>
<path d="M29.1424 19.4286C44.2908 19.4286 56.571 15.0793 56.571 9.71429C56.571 4.34923 44.2908 0 29.1424 0C13.9941 0 1.71387 4.34923 1.71387 9.71429C1.71387 15.0793 13.9941 19.4286 29.1424 19.4286Z" fill="#F3A2A2"/>
<path d="M29.1424 19.4282C13.9939 19.4282 1.71387 15.0784 1.71387 9.71387V23.9996H1.7653C2.60072 29.0979 14.5367 33.1424 29.1424 33.1424C43.7482 33.1424 55.6842 29.0979 56.5196 23.9996H56.571V9.71387C56.571 15.0784 44.291 19.4282 29.1424 19.4282Z" fill="#F19393"/>
<path d="M1.71387 9.14258V9.71401C1.71387 9.52201 1.73444 9.33229 1.7653 9.14258H1.71387Z" fill="#8697CB"/>
<path d="M56.5195 9.14258C56.5504 9.33229 56.571 9.52201 56.571 9.71401V9.14258H56.5195Z" fill="#8697CB"/>
<path d="M48.5707 63.9999C56.1449 63.9999 62.285 57.8598 62.285 50.2856C62.285 42.7114 56.1449 36.5713 48.5707 36.5713C40.9965 36.5713 34.8564 42.7114 34.8564 50.2856C34.8564 57.8598 40.9965 63.9999 48.5707 63.9999Z" fill="#26B999"/>
<path d="M56.0803 43.633C55.5603 43.2718 54.8494 43.3998 54.4894 43.9187L48.094 53.1072L43.5809 49.4021C43.094 49.001 42.3729 49.073 41.9729 49.561C41.5717 50.049 41.6426 50.769 42.1317 51.169L47.6014 55.6592C47.8071 55.8272 48.0631 55.9187 48.326 55.9187C48.3774 55.9187 48.43 55.9152 48.4826 55.9084C48.798 55.8638 49.0814 55.6912 49.2643 55.4295L56.366 45.225C56.726 44.7061 56.598 43.9941 56.0803 43.633Z" fill="white"/>
</svg>
