<svg width="68" height="68" viewBox="0 0 68 68" fill="none" xmlns="http://www.w3.org/2000/svg">
<g clip-path="url(#clip0_339_1060)">
<path fill-rule="evenodd" clip-rule="evenodd" d="M20.2671 22.759C21.9901 19.7728 30.1798 21.2756 38.5551 26.1122C46.9342 30.9489 52.3271 37.2883 50.6041 40.2744C49.6461 41.9278 48.688 43.5852 47.7339 45.2424C46.0109 48.2286 37.8212 46.7258 29.4459 41.8892C21.0706 37.0525 15.6777 30.7133 17.4007 27.727C18.3548 26.0734 19.3128 24.4162 20.2671 22.759Z" fill="#E22525"/>
<path fill-rule="evenodd" clip-rule="evenodd" d="M38.555 26.1112C46.9341 30.9478 52.3269 37.2872 50.604 40.2733C48.8771 43.2595 40.6912 41.7606 32.3121 36.9241C23.9368 32.0875 18.544 25.7442 20.2669 22.758C21.9898 19.7719 30.1797 21.2745 38.555 26.1112Z" fill="#E95555"/>
<path fill-rule="evenodd" clip-rule="evenodd" d="M37.0982 28.6379C43.762 32.4856 48.4171 36.8934 47.5015 38.485C46.582 40.0728 40.4359 38.2417 33.772 34.3979C27.1081 30.5501 22.4492 26.1385 23.3687 24.5507C24.2842 22.9591 30.4343 24.7902 37.0982 28.6379Z" fill="#F3A2A2"/>
<path d="M43.0247 43.9241L41.4988 46.5702C42.0706 46.6629 42.6114 46.7247 43.1252 46.7518L44.3267 44.6734L43.0247 43.9241ZM37.5507 45.5776C37.0832 45.423 36.6043 45.257 36.1175 45.0716L37.5701 42.5528L38.8642 43.3022L37.5507 45.5776ZM32.4977 43.5107C32.0535 43.2944 31.6092 43.0703 31.1611 42.8347L32.5479 40.428L33.842 41.1813L32.4977 43.5107ZM27.7693 40.8761C27.3443 40.6057 26.9233 40.3353 26.5138 40.0572L27.862 37.7238L29.16 38.4733L27.7693 40.8761ZM23.3537 37.7044C22.9519 37.3761 22.5656 37.0438 22.1986 36.7155L23.5122 34.4363L24.8063 35.1858L23.3537 37.7044ZM19.3671 33.7911C19.004 33.343 18.6755 32.9026 18.3936 32.4777L19.595 30.3955L20.893 31.145L19.3671 33.7911Z" fill="#F7C1C1"/>
<path fill-rule="evenodd" clip-rule="evenodd" d="M8.99414 42.9551H19.1619C23.2567 46.1112 27.3516 49.2712 31.4465 52.4312C33.096 53.7023 33.5481 55.9776 32.6131 57.7662L44.7742 51.871C46.8796 50.8512 49.4332 51.7358 50.453 53.8412C51.4729 55.9427 50.5844 58.5001 48.4829 59.52C26.722 70.0702 30.9289 70.4681 8.99414 59.0257V42.9551Z" fill="#FFCEBF"/>
<path d="M20.2511 51.9753L19.4243 51.3379L18.1533 52.9874L26.996 59.8097C28.1472 60.6982 29.5573 61.0343 30.9016 60.8643C32.2459 60.6904 33.5285 60.0067 34.417 58.8516C34.5676 58.6547 34.7068 58.4499 34.8265 58.2374C34.954 58.0133 35.0621 57.7931 35.1471 57.5768L35.6725 56.2826L32.6129 57.766C32.0836 58.3532 31.3767 58.7047 30.6388 58.7974C29.8237 58.9017 28.966 58.7009 28.2669 58.1601L20.2511 51.9753Z" fill="#FFB09E"/>
<path fill-rule="evenodd" clip-rule="evenodd" d="M0.0664062 40.0381H8.99406V61.9419H0.0664062V40.0381Z" fill="#B81818"/>
<path fill-rule="evenodd" clip-rule="evenodd" d="M59.01 25.0454H48.8384C44.7436 21.8892 40.6487 18.7292 36.5575 15.5692C34.9041 14.2982 34.4522 12.0229 35.3909 10.2343L23.2259 16.1294C21.1243 17.1493 18.567 16.2646 17.5471 14.1593C16.5273 12.0578 17.4158 9.50035 19.5173 8.48049C41.2782 -2.06961 37.0751 -2.46751 59.0099 8.97495L59.01 25.0454Z" fill="#FFCEBF"/>
<path d="M47.7485 16.0254L48.5753 16.6627L49.8463 15.0132L41.0075 8.19102C39.8524 7.30251 38.4424 6.96636 37.1019 7.13636C35.7537 7.31021 34.475 7.99393 33.5826 9.149C33.432 9.34596 33.2968 9.55076 33.1732 9.76326C33.0457 9.98731 32.9414 10.2075 32.8526 10.4239L32.3271 11.718L35.3906 10.2346C35.916 9.64744 36.623 9.29589 37.3607 9.20319C38.1798 9.09893 39.0335 9.29974 39.7326 9.84055L47.7485 16.0254Z" fill="#FFB09E"/>
<path fill-rule="evenodd" clip-rule="evenodd" d="M59.0098 6.05859H67.9336V27.9624H59.0098V6.05859Z" fill="#B81818"/>
</g>
<defs>
<clipPath id="clip0_339_1060">
<rect width="68" height="68" fill="white"/>
</clipPath>
</defs>
</svg>
