<svg width="66" height="66" viewBox="0 0 66 66" fill="none" xmlns="http://www.w3.org/2000/svg">
<path d="M33.0003 0C22.8601 10.6559 6.01562 8.25 6.01562 8.25V37.125C6.01562 54.1406 33.0003 66 33.0003 66C33.0003 66 59.9851 54.1406 59.9851 37.125V8.25C59.9851 8.25 43.1406 10.6559 33.0003 0Z" fill="#F19393"/>
<path d="M32.9995 9.49902C25.7808 17.088 13.7832 15.3771 13.7832 15.3771V35.9403C13.7832 48.0564 32.9995 56.5013 32.9995 56.5013C32.9995 56.5013 52.2169 48.0554 52.2169 35.9382V15.3751C52.2169 15.3751 40.2183 17.088 32.9995 9.49902Z" fill="#E22525"/>
<path d="M31.1105 43.5132L21.1445 35.1869L23.7887 32.021L30.3185 37.4773L41.0178 22.3076L44.3899 24.6846L31.1105 43.5132Z" fill="white"/>
</svg>
