<?xml version="1.0" encoding="UTF-8"?>
<svg id="uuid-311cd151-7382-4680-8e1e-9f155803193d" data-name="Layer 1" xmlns="http://www.w3.org/2000/svg" viewBox="0 0 456 456">
  <path d="M414.81,19.69c-1.57-.97-3.38-1.48-5.22-1.48H111.94c-25.59,0-46.41,20.62-46.41,45.88l-1.75,256.32H10c-5.52,0-10,4.47-10,10v46.18c.04,33.91,27.51,61.39,61.42,61.43,.69,0,1.38-.07,2.05-.21h248.34c1.48,.11,2.97,.18,4.47,.18,34.44-.06,62.32-27.99,62.33-62.42V225.71h67.37c5.52,0,10-4.47,10-10V67.34c-.12-23.86-17.59-44.08-41.18-47.65ZM19.99,376.58v-36.18H253.96v35.15c-.01,15.66,5.88,30.75,16.5,42.25H60.06c-.47,0-.94,.04-1.41,.11-21.74-1.48-38.63-19.54-38.66-41.33ZM358.64,67.34V375.55c-.02,11.17-4.46,21.88-12.35,29.79-7.56,7.75-17.82,12.28-28.64,12.62-.54-.09-1.09-.14-1.64-.14h-3.51c-21.77-2.14-38.41-20.38-38.55-42.25v-45.15c0-5.52-4.47-10-10-10H83.78l1.75-256.25c.14-14.45,11.96-26.07,26.42-25.96H368.57c-6.44,8.35-9.93,18.6-9.93,29.15Zm77.37,138.38h-57.38V67.34c.26-15.66,13.03-28.21,28.69-28.21s28.43,12.55,28.69,28.21V205.72Z" fill="#e53636"/>
  <path d="M128.33,126.49h94.67c5.52,0,10-4.47,10-10s-4.47-10-10-10h-94.67c-5.52,0-10,4.47-10,10s4.47,10,10,10Z" fill="#e53636"/>
  <path d="M304.92,177.96H128.33c-5.52,0-10,4.47-10,10s4.47,10,10,10h176.59c5.52,0,10-4.48,10-10s-4.47-10-10-10Z" fill="#e53636"/>
  <path d="M304.92,249.43H128.33c-5.52,0-10,4.48-10,10s4.47,10,10,10h176.59c5.52,0,10-4.47,10-10s-4.47-10-10-10Z" fill="#e53636"/>
</svg>