<?xml version="1.0" encoding="utf-8"?>
<!-- Generator: Adobe Illustrator 27.0.1, SVG Export Plug-In . SVG Version: 6.00 Build 0)  -->
<svg version="1.1" id="svg192" xmlns:svg="http://www.w3.org/2000/svg"
	 xmlns="http://www.w3.org/2000/svg" xmlns:xlink="http://www.w3.org/1999/xlink" x="0px" y="0px" viewBox="0 0 682.7 682.7"
	 style="enable-background:new 0 0 682.7 682.7;" xml:space="preserve">
<style type="text/css">
	.st0{fill:#E53636;}
</style>
<g>
	<g>
		<path class="st0" d="M642.4,17.2c-3.6,0-7.1,0.8-10.4,2.4l-175.5,87.8L258.1,19.2c-0.3-0.1-0.7-0.2-1-0.3
			c-0.9-0.3-1.8-0.6-2.7-0.8c-0.9-0.2-1.9-0.4-2.8-0.6c-1.9-0.2-3.8-0.2-5.6,0c-0.9,0.1-1.9,0.3-2.8,0.6c-0.9,0.2-1.8,0.5-2.7,0.8
			c-0.3,0.1-0.7,0.2-1,0.3L30.9,111.8c-8.4,3.7-13.8,12-13.8,21.2v509.4c0,7.8,4,15.1,10.5,19.4c6.6,4.3,14.9,4.9,22,1.8l199-88.5
			l199,88.5c0.3,0.1,0.7,0,1.1,0.2c5.6,2.5,12,2.4,17.5-0.4c0.4-0.2,0.8,0,1.2-0.3l185.2-92.6c7.9-3.9,12.8-11.9,12.8-20.7V40.3
			C665.5,27.5,655.2,17.2,642.4,17.2z M225.6,534.7l-162.1,72V148l162.1-72V534.7z M434,606.7l-162.1-72V76L434,148V606.7z
			 M619.2,535.4l-138.9,69.5V147.3l138.9-69.5V535.4z"/>
	</g>
</g>
</svg>
