<?xml version="1.0" encoding="UTF-8"?>
<svg id="Layer_1" data-name="Layer 1" xmlns="http://www.w3.org/2000/svg" viewBox="0 0 777.12 283.46">
  <path d="M163.58,253.19c-12.1,0-104.6-9.05-104.6-98.58,0,0-1.03-18.11,10.5-43.16,0,0,11.05-21.32,12.62-24.51,0,0,2.1-5.86,1.06-11.19-.53-3.73-3.69-19.71,11.02-25.59,0,0-1.57,4.81-1.57,6.93,.52,8.52,23.66,9.06,23.66,25.05,0,5.86-4.73,11.72-12.63,12.26-5.78,.52-9.46-5.89-8.92-9.08,.52-3.72,2.61-7.45,7.33-7.45,0,0,2.64,0,2.64,1.59,0,1.07-.51,1.07-1.05,1.07-1.05,0-1.05-.52-1.05-.52,0,0,0-.55-1.05-.55s-5.26,2.14-5.26,6.93c0,0,1.05,6.4,7.36,6.4,5.79-.53,11.04-3.73,11.04-11.19,0-15.99-26.81-13.32-23.13-27.71,0,0-7.35,3.73-7.35,15.46,0,0,1.05,8.52,1.05,11.18s-.52,5.33-1.56,7.47c-.53,1.6-23.13,34.09-23.13,67.68-.53,3.72-.53,48.46,37.3,74.06,29.96,20.24,63.07,22.38,63.07,22.38-14.19-7.46-22.59-15.99-22.59-15.99-69.37-9.05-68.86-73.53-68.32-77.25,3.14-67.15,65.7-73.01,65.7-73.01,5.78-1.06,18.4-.54,18.4-.54-7.91-25.04-26.29-29.83-26.29-29.83-1.58,6.4-1.58,9.05-1.58,11.73-.52,2.66,.53,5.86,3.69,5.86,1.57,0,1.57,.54,2.09-1.07,.54-1.07,2.1,0,2.1,0,.53,1.61-.52,3.19-3.66,3.19-8.42,0-6.32-13.31-6.32-13.31,0-12.81-14.71-20.25-14.71-20.25,.51,3.19-2.1,7.44-2.1,10.12,0,2.13,1.57,4.28,2.61,4.28,1.06,.52,1.6,.52,2.65,0,.54-1.07,1.57,0,1.57,0-.54,2.12-3.16,1.59-3.16,1.59-4.2,0-5.26-3.73-5.26-4.8-.51-1.06,.54-5.31,.54-7.47-.54-1.58-1.05-5.32-3.15-6.92-2.63-2.14-7.35-7.46-8.4-11.73-.54-4.25,2.61-7.46,2.61-7.46-14.18-1.06-24.18,10.12-25.75,17.58-1.56,8,2.11,11.73,2.11,15.99,.52,4.27-3.16,6.39-6.32,6.39-2.62-.53-1.05-2.66-1.05-2.66,2.64,1.07,4.21,.54,5.25-2.13,1.04-2.66-2.11-7.46-2.11-7.46-2.1-1.06-3.15-6.92-3.15-6.92-12.11,15.46-12.6,26.64-12.6,26.64-.54,16.53,8.4,20.79,7.87,27.19-.53,6.39-4.72,7.45-6.83,7.45-2.11-.54-1.04-2.12-1.04-2.12,1.04,.53,4.21,1.06,5.77-4.27,1.07-5.87-6.83-12.27-6.83-12.27-2.62-2.13-3.67-6.4-3.67-6.4-15.77,30.39-8.4,47.42-1.05,53.29,6.83,5.34,6.83,11.2,6.83,11.2-.54,8-4.73,8-7.36,8s-1.58-1.6-1.58-1.6c4.21,.54,4.75-.54,6.31-4.81,1.58-4.79-3.15-10.13-7.36-11.73-4.73-2.12-6.84-6.93-6.84-6.93-5.25,56.5,16.82,62.35,16.82,62.35,5.79,2.14,8.94,5.34,9.47,9.07,0,5.85-4.74,6.39-4.74,6.39-2.09-.54-.52-2.67-.52-2.67,2.63,1.08,2.63-2.66,2.63-2.66,1.06-5.86-4.72-7.44-10.51-9.05-5.79-1.07-7.87-4.27-7.87-4.27,5.77,33.04,21.02,39.44,27.85,42.63,6.82,3.2,13.13,2.12,18.92,4.79,3.13,1.07,3.13,6.39,.51,8-2.63,1.06-2.1-1.61-2.1-1.61,2.64,0,1.59-3.19,1.59-3.19-1.07-3.2-5.79-2.66-5.79-2.66-7.35,2.66-12.08,1.07-12.08,1.07,33.11,45.28,119.3,29.84,119.3,29.84-10.52-1.61-19.97-4.8-27.85-8.53Z" fill="#1f2879" fill-rule="evenodd"/>
  <g>
    <path d="M93.66,108.79c72.56,2.67,93.57-9.57,93.57-12.25s-6.32-2.66-6.32-2.66c0,0,14.19,11.18-87.25,14.91Z" fill="#ed1c29" fill-rule="evenodd"/>
    <path d="M196.16,105.6c-.52-1.07,11.05,2.13,10,5.33-1.06,3.2-1.58,10.11-41.01,18.11-7.35,1.06-75.68,4.26-85.66,1.59,0,0,115.62-.53,119.84-20.78,0,0,.53-2.13-3.17-4.26Z" fill="#ed1c29" fill-rule="evenodd"/>
    <path d="M210.34,122.65s10.52,1.05,10,6.39c-1.05,5.87-12.62,17.05-55.19,22.39-6.31,.53-79.88,3.73-90.92,1.07,0,0,76.71-3.21,83.57-4.27,6.31-.52,52.54-5.86,54.66-21.31,0-1.59-2.12-4.26-2.12-4.26Z" fill="#ed1c29" fill-rule="evenodd"/>
    <path d="M217.72,145.03s8.91,1.06,9.45,6.39c1.03,11.72-43.11,31.43-153.46,23.44,0,0,69.37-1.06,87.24-3.74,4.73-.52,55.19-4.79,58.35-21.85,0-2.12-1.57-4.25-1.57-4.25Z" fill="#ed1c29" fill-rule="evenodd"/>
    <path d="M219.29,169.54s11.04,1.59,7.88,6.4c-12.09,19.18-60.45,27.18-145.61,19.18,0,0,64.65-.53,79.38-2.14,23.11-2.12,55.19-6.93,58.35-20.24,.51-1.06,0-3.2,0-3.2Z" fill="#ed1c29" fill-rule="evenodd"/>
    <path d="M211.41,193.53s6.82,.52,6.82,5.31c.53,4.27-18.9,16-55.17,16.53-2.11,0-63.6,0-67.27-2.69,0,0,58.85,0,66.73-.51,7.9-1.08,50.47-2.68,48.89-18.65Z" fill="#ed1c29" fill-rule="evenodd"/>
    <path d="M193.01,218.03s4.21,.52,2.63,3.2c-2.09,2.65-27.33,14.39-83.04,4.79,0,0,28.38,2.13,43.09,1.06,14.2-1.06,37.32-1.6,37.32-9.05Z" fill="#ed1c29" fill-rule="evenodd"/>
  </g>
  <g>
    <path d="M280.85,143.6c-1.29,0-2.5,.24-3.63,.72-1.14,.48-2.02,1.2-2.65,2.16,1.18-.48,2.38-.72,3.61-.72s2.37,.19,3.47,.58c1.11,.39,2.08,.93,2.92,1.62,.84,.7,1.5,1.53,2.01,2.5,.51,.97,.76,2.05,.76,3.21s-.22,2.26-.65,3.25c-.44,.98-1.06,1.84-1.87,2.56-.81,.72-1.77,1.28-2.88,1.68-1.11,.4-2.32,.6-3.64,.6-1.78,0-3.46-.21-5.05-.62-1.59-.41-2.99-1.11-4.21-2.08-1.22-.98-2.18-2.26-2.9-3.84-.71-1.59-1.07-3.57-1.07-5.95,0-2.24,.49-4.14,1.48-5.72,.99-1.58,2.28-2.85,3.88-3.82,1.6-.97,3.4-1.68,5.4-2.12,2-.44,4.01-.66,6.04-.66s3.78,.32,5.26,.96c1.48,.64,2.77,1.48,3.86,2.52,1.1,1.04,2.03,2.22,2.81,3.54,.78,1.32,1.49,2.65,2.11,3.98,.25,.48,.48,.97,.7,1.48,.22,.51,.44,.98,.66,1.41,.55,1.25,.99,2.26,1.33,3.04,.34,.78,.54,1.16,.6,1.16,.41,0,.76-.26,1.05-.78,.29-.52,.54-1.2,.74-2.04,.2-.84,.37-1.8,.49-2.9,.12-1.09,.21-2.22,.26-3.36,.05-1.15,.1-2.28,.13-3.4,.03-1.12,.04-2.12,.04-3,.03-.35,.04-.68,.04-.98v-.94c0-2.22-.15-4.09-.44-5.64-.29-1.54-.68-2.84-1.17-3.9-.49-1.06-1.05-1.91-1.68-2.57-.63-.65-1.27-1.18-1.93-1.58-.6-.38-1.35-.7-2.24-.96-.89-.27-1.81-.5-2.77-.68-.96-.19-1.9-.32-2.83-.41-.93-.08-1.74-.12-2.43-.12-.74,0-1.41,.01-2.01,.02-.6,.01-1.19,.04-1.77,.08-.57,.04-1.15,.1-1.72,.18-.58,.08-1.19,.21-1.85,.36-.49,.1-1.05,.23-1.68,.38-.63,.15-1.22,.34-1.79,.56-.56,.22-1.03,.48-1.42,.76-.39,.28-.56,.61-.54,.98,0,.37,.14,.71,.41,1.02,.28,.3,.52,.54,.74,.7,.27,.22,.63,.51,1.07,.88l-4.27,5.28c-.96-.48-1.83-1-2.63-1.56-.79-.56-1.48-1.17-2.07-1.82-.59-.65-1.04-1.34-1.38-2.06-.33-.72-.49-1.48-.49-2.28,0-1.52,.38-2.82,1.15-3.9,.77-1.08,1.76-1.99,2.98-2.74,1.22-.75,2.57-1.34,4.05-1.8,1.48-.45,2.93-.81,4.35-1.08h-.04c.52-.11,1.18-.2,1.97-.28,.79-.08,1.61-.15,2.45-.22,.83-.07,1.65-.11,2.44-.14,.79-.03,1.48-.04,2.05-.04,1.09,0,2.35,.05,3.76,.16,1.41,.1,2.83,.29,4.27,.56,1.43,.27,2.8,.62,4.1,1.08,1.3,.45,2.4,1.01,3.31,1.68,1.81,1.34,3.27,2.8,4.4,4.41,1.12,1.6,2,3.25,2.63,4.98,.63,1.72,1.05,3.47,1.28,5.26,.22,1.79,.32,3.55,.32,5.29,0,2.31-.06,4.59-.18,6.82-.13,2.23-.39,4.32-.8,6.26-.33,1.5-.77,2.86-1.31,4.1-.55,1.24-1.23,2.31-2.05,3.22-.82,.91-1.79,1.62-2.92,2.13-1.12,.5-2.43,.76-3.9,.76-1.56,0-2.86-.21-3.88-.62-1.03-.41-1.89-.97-2.59-1.66-.7-.69-1.27-1.5-1.73-2.4-.45-.91-.88-1.84-1.29-2.8-.22-.48-.43-.95-.63-1.4-.21-.45-.43-.91-.68-1.36h.04c-.16-.35-.33-.68-.51-1-.18-.33-.35-.64-.51-.96-.41-.82-.81-1.6-1.21-2.32-.4-.72-.85-1.35-1.36-1.9-.51-.54-1.09-.97-1.77-1.28-.67-.31-1.47-.46-2.4-.46Zm-.57,10.16c0-.74-.19-1.37-.56-1.88-.37-.51-.84-.77-1.42-.77-.52,0-.96,.26-1.31,.77-.36,.51-.53,1.13-.53,1.88s.18,1.38,.53,1.88c.36,.51,.79,.76,1.31,.76,.58,0,1.05-.25,1.42-.76,.37-.5,.56-1.13,.56-1.88Z" fill="#1f2879"/>
    <path d="M335.28,121.83c-.77,0-1.55,.1-2.36,.28-.81,.19-1.57,.43-2.28,.72,1.2,.11,2.28,.38,3.22,.82,.95,.44,1.74,1.01,2.38,1.7,.64,.7,1.13,1.49,1.48,2.38,.34,.9,.51,1.86,.51,2.9,0,1.17-.23,2.26-.68,3.26-.45,1-1.09,1.86-1.89,2.59-.81,.72-1.77,1.29-2.87,1.7-1.11,.41-2.31,.62-3.6,.62-1.81,0-3.37-.24-4.68-.73-1.31-.48-2.4-1.17-3.24-2.08-.85-.91-1.48-1.99-1.89-3.25-.41-1.26-.61-2.67-.61-4.24,0-1.71,.47-3.36,1.41-4.96,.95-1.6,2.2-3.03,3.74-4.28,1.55-1.25,3.32-2.26,5.3-3.02,1.98-.76,4.03-1.14,6.14-1.14,2.29,0,4.56,.34,6.79,1.02,2.23,.68,4.23,1.66,5.98,2.94,1.75,1.28,3.17,2.84,4.25,4.66,1.08,1.82,1.62,3.89,1.62,6.18v21.73l-.04-.16c.03,.16,.01,.47-.04,.94-.05,.47-.13,1.03-.23,1.68-.1,.65-.2,1.34-.33,2.08-.12,.73-.25,1.43-.37,2.08-.12,.65-.24,1.23-.35,1.74-.11,.51-.19,.84-.25,1.01h-9.49c.08-.19,.26-.69,.53-1.52,.28-.83,.55-1.76,.84-2.8,.29-1.04,.55-2.09,.78-3.16,.23-1.07,.35-1.95,.35-2.64v-21.85c0-1.06-.33-2.04-.98-2.92-.66-.88-1.49-1.64-2.49-2.28-1-.64-2.09-1.13-3.28-1.48-1.19-.34-2.32-.52-3.39-.52Zm-4.11,8.88c0-.74-.18-1.37-.55-1.86-.37-.49-.81-.74-1.33-.74-.55,0-1.02,.25-1.4,.74-.39,.49-.58,1.12-.58,1.86s.19,1.42,.58,1.92c.38,.5,.85,.76,1.4,.76,.52,0,.96-.25,1.33-.76,.37-.51,.55-1.14,.55-1.92Z" fill="#1f2879"/>
    <path d="M405.35,145.49c0,2.03-.31,3.83-.92,5.42-.62,1.59-1.46,2.98-2.55,4.18-1.08,1.2-2.35,2.23-3.82,3.08-1.46,.86-3.05,1.55-4.74,2.09-1.7,.53-3.47,.91-5.3,1.16-1.83,.24-3.67,.36-5.5,.36-1.31,0-2.75-.12-4.29-.36-1.55-.24-3.1-.6-4.64-1.08-1.55-.49-3.04-1.1-4.48-1.85-1.43-.74-2.71-1.63-3.82-2.66-1.11-1.03-2-2.19-2.67-3.5-.67-1.31-1.01-2.78-1.01-4.4,0-1.33,.25-2.55,.76-3.64,.51-1.09,1.22-2.03,2.13-2.8,.92-.77,2-1.37,3.24-1.78,1.25-.41,2.61-.62,4.09-.62,1.37,0,2.59,.2,3.66,.6,1.06,.4,1.97,.96,2.71,1.68,.74,.72,1.3,1.58,1.69,2.56,.38,.99,.58,2.07,.58,3.24,0,1.68-.36,3.14-1.07,4.38-.71,1.24-1.81,2.15-3.28,2.74,1.07,.29,2.16,.5,3.28,.62,1.12,.12,2.07,.18,2.84,.18,1.64,0,3.32-.13,5.03-.4,1.71-.27,3.28-.76,4.68-1.48,1.41-.72,2.57-1.74,3.47-3.04,.9-1.31,1.35-3,1.35-5.08v-12.37c0-2.03-.42-3.73-1.27-5.12-.85-1.39-1.96-2.52-3.33-3.38-1.37-.87-2.9-1.49-4.6-1.87-1.7-.37-3.38-.56-5.05-.56-.68,0-1.46,.05-2.34,.14-.88,.09-1.77,.26-2.69,.48-.92,.23-1.81,.53-2.67,.92-.86,.39-1.64,.86-2.32,1.42-.68,.56-1.24,1.23-1.66,2-.43,.77-.64,1.67-.64,2.68h-8.59c0-1.78,.32-3.38,.97-4.78,.64-1.4,1.5-2.63,2.59-3.7,1.08-1.06,2.34-1.97,3.76-2.72,1.42-.74,2.91-1.35,4.47-1.82,1.56-.46,3.14-.81,4.75-1.03,1.6-.21,3.12-.31,4.54-.31,2.87,0,5.67,.33,8.38,.98,2.71,.65,5.12,1.67,7.25,3.06,2.12,1.39,3.83,3.17,5.11,5.36,1.29,2.19,1.93,4.81,1.93,7.84v13.17Zm-31.92,1.52c0-.74-.18-1.37-.55-1.86-.38-.5-.82-.74-1.33-.74-.58,0-1.05,.25-1.42,.74-.37,.49-.55,1.11-.55,1.86s.18,1.42,.55,1.93c.37,.5,.84,.75,1.42,.75,.52,0,.96-.25,1.33-.75,.37-.51,.55-1.15,.55-1.93Z" fill="#1f2879"/>
    <path d="M468.37,153.81c0,1.2-.23,2.28-.7,3.26-.47,.97-1.1,1.81-1.91,2.52-.81,.71-1.77,1.25-2.89,1.62-1.12,.37-2.34,.56-3.66,.56s-2.59-.19-3.84-.56c-1.25-.37-2.35-.95-3.31-1.74-.96-.79-1.73-1.79-2.32-3-.59-1.21-.88-2.66-.88-4.34v-27.13c0-1.36,.18-2.53,.55-3.52,.37-.99,.89-1.84,1.54-2.56,.66-.72,1.44-1.33,2.35-1.82,.9-.5,1.88-.93,2.92-1.3-1.15-.56-2.42-1.32-3.8-2.28-1.38-.96-2.73-1.95-4.04-2.98-1.32-1.03-2.53-2.01-3.63-2.95-1.11-.93-1.96-1.68-2.57-2.24-.76-.69-1.68-1.54-2.75-2.54-1.07-1-2.08-2.06-3.04-3.18-.96-1.12-1.78-2.27-2.46-3.44-.69-1.17-1.03-2.28-1.03-3.32s.19-2.07,.56-3c.37-.93,.91-1.74,1.62-2.44,.71-.69,1.59-1.23,2.63-1.62,1.04-.39,2.23-.58,3.57-.58,1.07,0,2.16,.22,3.29,.66,1.12,.44,2.24,1.01,3.35,1.72,1.11,.71,2.21,1.49,3.31,2.36,1.09,.86,2.16,1.73,3.2,2.58,.82,.67,1.64,1.32,2.45,1.96,.81,.64,1.57,1.22,2.28,1.73,.71,.5,1.35,.91,1.93,1.22,.57,.3,1.03,.46,1.36,.46,.05-.03,.1-.05,.14-.06,.04-.01,.1-.04,.18-.1,.08-.02,.16-.06,.23-.12,.07-.06,.23-.12,.47-.2,.25-.08,.61-.19,1.09-.34,.48-.14,1.16-.34,2.04-.58l.53,6.73c-.08,.03-.21,.07-.39,.14-.18,.07-.37,.14-.57,.22-.21,.08-.39,.16-.58,.22-.18,.07-.31,.11-.39,.14h.04c-.3,.13-.61,.26-.93,.36-.31,.1-.73,.22-1.25,.32-.98,.16-2.03,.05-3.14-.34-1.11-.39-2.25-.94-3.41-1.66-1.16-.72-2.35-1.55-3.55-2.5-1.21-.95-2.4-1.9-3.57-2.86-.88-.72-1.73-1.41-2.56-2.06-.84-.65-1.6-1.23-2.28-1.74-.68-.51-1.29-.91-1.81-1.22-.52-.31-.92-.46-1.19-.46-.08,0-.12,.15-.12,.44,0,.53,.33,1.25,1,2.16,.67,.91,1.53,1.91,2.57,3,1.04,1.1,2.21,2.23,3.49,3.4,1.29,1.18,2.55,2.29,3.8,3.35,1.24,1.05,2.4,1.99,3.47,2.82,1.06,.82,1.9,1.43,2.5,1.8,.22,.13,.44,.26,.68,.38,.23,.12,.5,.26,.8,.42,.71,.35,1.48,.74,2.32,1.18,.84,.44,1.62,.92,2.34,1.44,.72,.52,1.33,1.08,1.81,1.68,.48,.6,.72,1.24,.72,1.9s-.16,1.21-.47,1.7c-.31,.49-.73,.93-1.25,1.32-.52,.39-1.11,.74-1.77,1.06-.66,.32-1.33,.64-2.01,.96-.46,.22-.94,.44-1.41,.66-.48,.23-.9,.5-1.28,.82-.37,.32-.67,.69-.9,1.12-.23,.43-.35,.93-.35,1.52v21.09c.35-.05,.7-.1,1.03-.14,.33-.05,.7-.06,1.11-.06,2.88,0,5.06,.7,6.55,2.1,1.49,1.4,2.24,3.37,2.24,5.9Zm-7.07-.04c0-.69-.2-1.3-.59-1.81-.4-.53-.86-.79-1.38-.79s-.93,.26-1.32,.79c-.38,.51-.57,1.12-.57,1.81s.19,1.35,.57,1.88c.38,.54,.82,.8,1.32,.8,.55,0,1.01-.26,1.39-.78,.39-.53,.58-1.15,.58-1.9Z" fill="#1f2879"/>
    <path d="M529.69,153.09c0,.99-.03,1.83-.1,2.54-.07,.71-.18,1.35-.33,1.94-.15,.58-.35,1.15-.6,1.69-.25,.53-.54,1.12-.9,1.76h-9.98c.96-1.34,1.74-2.56,2.36-3.66,.62-1.11,.93-2.3,.93-3.59v-23.65c.03-.98-.05-1.98-.22-2.98-.18-1-.49-1.9-.93-2.7-.44-.8-1.01-1.45-1.72-1.94-.71-.49-1.59-.74-2.63-.74s-1.86,.22-2.55,.66c-.68,.44-1.23,1.02-1.64,1.74-.41,.73-.71,1.56-.88,2.5-.18,.94-.27,1.91-.27,2.9v18.81c0,2.16-.37,4.07-1.09,5.74-.72,1.67-1.74,3.06-3.06,4.2-1.31,1.14-2.9,1.99-4.77,2.58-1.86,.59-3.93,.88-6.2,.88-2.52,0-4.78-.22-6.78-.66-2-.43-3.7-1.17-5.09-2.2-1.4-1.03-2.46-2.39-3.2-4.11-.74-1.7-1.11-3.83-1.11-6.36,0-1.2,.24-2.65,.72-4.36,.48-1.7,1.24-3.52,2.28-5.44,.52-.94,1.12-1.89,1.79-2.89,.67-.98,1.35-1.94,2.03-2.88,.16-.27,.29-.47,.39-.6,.1-.14,.19-.25,.27-.36,.08-.1,.16-.23,.24-.36,.09-.13,.21-.32,.38-.56-1.12-.16-2.18-.44-3.16-.82-.99-.39-1.84-.91-2.57-1.56-.72-.65-1.3-1.43-1.72-2.34-.43-.91-.64-1.96-.64-3.16s.25-2.34,.76-3.34c.5-1,1.18-1.85,2.03-2.54,.85-.69,1.82-1.23,2.92-1.6,1.1-.37,2.23-.56,3.41-.56,1.31,0,2.57,.14,3.76,.42,1.19,.28,2.25,.73,3.17,1.34,.92,.62,1.64,1.42,2.17,2.44,.53,1.01,.8,2.25,.8,3.72,0,1.17-.17,2.37-.52,3.58-.34,1.21-.8,2.43-1.38,3.66-.57,1.23-1.23,2.46-1.95,3.7-.73,1.23-1.46,2.46-2.2,3.66-.38,.67-.77,1.33-1.17,1.98-.4,.65-.79,1.32-1.17,2.02-.82,1.44-1.37,2.8-1.64,4.08-.28,1.28-.41,2.43-.41,3.44,0,1.28,.2,2.31,.59,3.1,.4,.79,.93,1.38,1.6,1.8,.67,.42,1.46,.69,2.36,.82,.9,.13,1.86,.2,2.88,.2,.88,0,1.72-.16,2.53-.48,.81-.32,1.52-.77,2.14-1.36,.62-.59,1.11-1.29,1.48-2.1,.37-.82,.56-1.73,.56-2.74v-18.64c0-2.06,.22-3.98,.67-5.76,.45-1.79,1.21-3.34,2.26-4.66,1.05-1.32,2.44-2.36,4.15-3.12,1.71-.76,3.84-1.14,6.39-1.14s4.79,.34,6.63,1.02c1.85,.68,3.36,1.65,4.54,2.9,1.18,1.25,2.04,2.8,2.59,4.63,.55,1.83,.82,3.87,.82,6.14v23.36Zm-39.84-30.05c0-.72-.19-1.33-.58-1.84-.38-.51-.85-.76-1.39-.76s-.97,.25-1.33,.76c-.37,.51-.56,1.12-.56,1.84,0,.77,.19,1.42,.56,1.94,.37,.52,.81,.78,1.33,.78s1.01-.26,1.39-.78c.38-.52,.58-1.17,.58-1.94Z" fill="#1f2879"/>
    <path d="M553.51,143.6c-1.29,0-2.5,.24-3.63,.72-1.13,.48-2.02,1.2-2.65,2.16,1.18-.48,2.38-.72,3.62-.72s2.36,.19,3.47,.58c1.11,.39,2.08,.93,2.92,1.62,.83,.7,1.5,1.53,2.01,2.5,.51,.97,.76,2.05,.76,3.21s-.22,2.26-.66,3.25c-.44,.98-1.06,1.84-1.87,2.56-.81,.72-1.77,1.28-2.88,1.68-1.11,.4-2.32,.6-3.63,.6-1.78,0-3.47-.21-5.05-.62-1.59-.41-2.99-1.11-4.21-2.08-1.22-.98-2.19-2.26-2.9-3.84-.71-1.59-1.07-3.57-1.07-5.95,0-2.24,.49-4.14,1.48-5.72,.99-1.58,2.28-2.85,3.88-3.82,1.6-.97,3.4-1.68,5.4-2.12,2-.44,4.01-.66,6.04-.66s3.78,.32,5.26,.96c1.48,.64,2.76,1.48,3.86,2.52,1.09,1.04,2.03,2.22,2.81,3.54,.78,1.32,1.49,2.65,2.12,3.98,.24,.48,.48,.97,.7,1.48,.22,.51,.44,.98,.66,1.41,.55,1.25,.99,2.26,1.33,3.04,.35,.78,.54,1.16,.6,1.16,.41,0,.76-.26,1.05-.78,.29-.52,.54-1.2,.74-2.04,.21-.84,.37-1.8,.49-2.9,.13-1.09,.21-2.22,.27-3.36,.06-1.15,.1-2.28,.13-3.4,.03-1.12,.04-2.12,.04-3,.03-.35,.04-.68,.04-.98v-.94c0-2.22-.14-4.09-.43-5.64-.29-1.54-.68-2.84-1.17-3.9-.49-1.06-1.05-1.91-1.69-2.57-.63-.65-1.27-1.18-1.93-1.58-.6-.38-1.35-.7-2.24-.96-.89-.27-1.82-.5-2.77-.68-.96-.19-1.9-.32-2.83-.41-.93-.08-1.74-.12-2.43-.12-.74,0-1.41,.01-2.01,.02-.6,.01-1.19,.04-1.77,.08-.57,.04-1.15,.1-1.72,.18-.58,.08-1.2,.21-1.85,.36-.49,.1-1.05,.23-1.68,.38-.63,.15-1.23,.34-1.79,.56-.56,.22-1.03,.48-1.42,.76-.38,.28-.56,.61-.53,.98,0,.37,.14,.71,.41,1.02,.28,.3,.52,.54,.74,.7,.27,.22,.63,.51,1.07,.88l-4.27,5.28c-.96-.48-1.83-1-2.63-1.56-.79-.56-1.48-1.17-2.07-1.82-.59-.65-1.05-1.34-1.37-2.06-.33-.72-.49-1.48-.49-2.28,0-1.52,.38-2.82,1.15-3.9,.76-1.08,1.76-1.99,2.97-2.74,1.22-.75,2.57-1.34,4.05-1.8,1.48-.45,2.93-.81,4.36-1.08h-.04c.52-.11,1.18-.2,1.97-.28,.79-.08,1.61-.15,2.45-.22,.83-.07,1.65-.11,2.44-.14,.79-.03,1.48-.04,2.05-.04,1.1,0,2.35,.05,3.76,.16,1.41,.1,2.83,.29,4.27,.56,1.43,.27,2.8,.62,4.11,1.08,1.3,.45,2.41,1.01,3.31,1.68,1.81,1.34,3.27,2.8,4.39,4.41,1.12,1.6,2,3.25,2.63,4.98,.63,1.72,1.05,3.47,1.27,5.26,.22,1.79,.33,3.55,.33,5.29,0,2.31-.06,4.59-.18,6.82-.12,2.23-.39,4.32-.8,6.26-.33,1.5-.77,2.86-1.31,4.1-.55,1.24-1.23,2.31-2.05,3.22-.82,.91-1.79,1.62-2.92,2.13-1.12,.5-2.42,.76-3.9,.76-1.56,0-2.86-.21-3.89-.62-1.02-.41-1.89-.97-2.59-1.66-.7-.69-1.27-1.5-1.72-2.4-.45-.91-.88-1.84-1.29-2.8-.22-.48-.43-.95-.63-1.4-.21-.45-.43-.91-.68-1.36h.04c-.16-.35-.33-.68-.51-1-.18-.33-.35-.64-.51-.96-.41-.82-.82-1.6-1.21-2.32-.4-.72-.85-1.35-1.36-1.9-.5-.54-1.1-.97-1.76-1.28-.67-.31-1.47-.46-2.41-.46Zm-.57,10.16c0-.74-.19-1.37-.55-1.88s-.85-.77-1.41-.77c-.52,0-.96,.26-1.32,.77-.36,.51-.54,1.13-.54,1.88s.18,1.38,.54,1.88c.35,.51,.79,.76,1.32,.76,.57,0,1.05-.25,1.41-.76,.37-.5,.55-1.13,.55-1.88Z" fill="#1f2879"/>
    <path d="M591.51,127.32c0-1.1,.24-2.13,.72-3.1,.48-.98,1.12-1.82,1.93-2.54,.81-.72,1.76-1.29,2.85-1.72,1.1-.43,2.26-.64,3.49-.64s2.39,.22,3.48,.64c1.08,.43,2.03,1,2.85,1.72,.82,.72,1.47,1.56,1.95,2.54,.48,.98,.72,2,.72,3.1,0,.77-.16,1.54-.47,2.32-.31,.77-.73,1.51-1.25,2.2,.6,.13,1.19,.23,1.79,.27,.59,.06,1.13,.08,1.62,.08,1.62,0,3.18-.2,4.7-.6,1.52-.4,2.86-1.05,4.03-1.92,1.16-.88,2.09-2.03,2.79-3.46,.7-1.42,1.05-3.18,1.05-5.26h8.58c0,2.11-.29,4.01-.86,5.7-.57,1.69-1.38,3.2-2.4,4.52-1.03,1.32-2.25,2.46-3.65,3.42-1.42,.96-2.94,1.76-4.58,2.38-1.64,.63-3.37,1.09-5.18,1.38-1.81,.29-3.63,.44-5.46,.44-2.3,0-4.66-.32-7.09-.95-2.42-.62-4.8-1.63-7.12-3.02h.04c-.63-.37-1.22-.85-1.76-1.44-.55-.58-1.03-1.23-1.44-1.92-.41-.69-.73-1.4-.96-2.12-.24-.72-.35-1.4-.35-2.04Zm0,18.29c0-1.1,.24-2.13,.72-3.1,.48-.97,1.12-1.82,1.93-2.54,.81-.72,1.76-1.29,2.85-1.72,1.1-.43,2.26-.64,3.49-.64s2.39,.21,3.48,.64c1.08,.43,2.03,1,2.85,1.72,.82,.72,1.47,1.57,1.95,2.54,.48,.97,.72,2,.72,3.1,0,.77-.16,1.55-.47,2.34-.31,.79-.73,1.53-1.25,2.22,.6,.13,1.19,.21,1.79,.26,.59,.04,1.13,.06,1.62,.06,1.62,0,3.18-.2,4.7-.6s2.86-1.04,4.03-1.92c1.16-.88,2.09-2.03,2.79-3.46,.7-1.42,1.05-3.18,1.05-5.26h8.58c0,2.1-.29,4.01-.86,5.7-.57,1.7-1.38,3.2-2.4,4.52-1.03,1.31-2.25,2.46-3.65,3.42-1.42,.96-2.94,1.75-4.58,2.38-1.64,.62-3.37,1.09-5.18,1.4-1.81,.3-3.63,.46-5.46,.46-2.3,0-4.66-.31-7.09-.94-2.42-.63-4.8-1.64-7.12-3.06h.04c-.63-.35-1.22-.82-1.76-1.42-.55-.6-1.03-1.24-1.44-1.93-.41-.68-.73-1.38-.96-2.11-.24-.74-.35-1.43-.35-2.06Zm7.11-18.33c0,.75,.19,1.38,.55,1.88,.37,.5,.83,.76,1.38,.76s1-.26,1.36-.76c.35-.51,.53-1.13,.53-1.88s-.18-1.37-.53-1.9c-.35-.52-.81-.78-1.36-.78s-1.01,.26-1.38,.78c-.37,.53-.55,1.16-.55,1.9Zm0,18.29c0,.74,.19,1.37,.55,1.88,.37,.5,.83,.76,1.38,.76s1-.26,1.36-.76c.35-.51,.53-1.14,.53-1.88s-.18-1.37-.53-1.88c-.35-.51-.81-.76-1.36-.76s-1.01,.25-1.38,.76c-.37,.51-.55,1.13-.55,1.88Z" fill="#1f2879"/>
    <path d="M648.52,146.16v.94c0,.31,.02,.62,.04,.94,.85-.72,1.84-1.28,2.98-1.68,1.14-.4,2.29-.6,3.47-.6,1.23,0,2.38,.23,3.45,.66,1.07,.44,2,1.03,2.8,1.79,.8,.74,1.41,1.61,1.87,2.57,.45,.98,.68,1.98,.68,3.03,0,1.17-.26,2.25-.78,3.22-.52,.98-1.21,1.81-2.07,2.5-.86,.69-1.86,1.24-2.98,1.64-1.12,.4-2.3,.6-3.54,.6-2.24,0-4.25-.37-6.03-1.12-1.78-.74-3.29-1.77-4.54-3.06-1.25-1.29-2.21-2.81-2.9-4.56-.68-1.74-1.04-3.6-1.06-5.58-.03-.16-.04-.36-.04-.58v-.66c0-1.55,.21-3.13,.64-4.76,.42-1.63,1.16-3.12,2.2-4.48-.79-1.1-1.44-2.33-1.95-3.7-.51-1.37-.76-2.67-.76-3.9,0-1.76,.38-3.35,1.15-4.76,.77-1.42,1.78-2.65,3.04-3.72,1.26-1.07,2.7-1.98,4.33-2.72,1.63-.74,3.31-1.36,5.05-1.84,1.74-.48,3.46-.83,5.17-1.04,1.71-.22,3.28-.32,4.7-.32,1.21,0,2.59,.12,4.13,.37,1.55,.23,3.13,.6,4.76,1.07,1.63,.48,3.23,1.09,4.8,1.8,1.58,.72,2.98,1.57,4.21,2.54,1.23,.97,2.22,2.07,2.98,3.28,.75,1.21,1.13,2.56,1.13,4.02v25.73c0,.67-.04,1.28-.14,1.82-.1,.55-.21,1.05-.35,1.52-.13,.46-.3,.91-.49,1.31-.19,.42-.38,.83-.58,1.23l-.7,1.36h-9.49c.36-.56,.72-1.15,1.09-1.76,.37-.62,.7-1.24,1-1.87,.3-.62,.55-1.24,.74-1.86,.19-.61,.29-1.2,.29-1.76v-23.65c0-.93-.23-1.79-.7-2.58-.47-.78-1.08-1.49-1.85-2.12-.77-.63-1.63-1.17-2.59-1.64-.96-.47-1.94-.85-2.96-1.16-1.02-.31-2-.55-2.94-.71-.95-.16-1.77-.24-2.48-.24-.96,0-1.98,.05-3.06,.16-1.08,.11-2.15,.29-3.22,.56-1.07,.27-2.09,.61-3.08,1.04-.98,.43-1.87,.97-2.65,1.62-.78,.65-1.42,1.42-1.91,2.3-.49,.88-.78,1.89-.87,3.04,1.59-1.18,3.52-1.76,5.79-1.76,1.29,0,2.51,.18,3.65,.54,1.15,.36,2.17,.89,3.04,1.56,.87,.68,1.57,1.51,2.07,2.5,.51,.99,.76,2.1,.76,3.32s-.26,2.35-.8,3.28c-.53,.94-1.25,1.71-2.16,2.32-.9,.61-1.94,1.08-3.1,1.4-1.16,.32-2.38,.48-3.64,.48-1.45,0-2.54-.16-3.28-.5-.74-.33-1.41-.72-2.01-1.18-.14,.61-.22,1.24-.27,1.88-.04,.64-.06,1.29-.06,1.92Zm8.14-9.53c0-.69-.14-1.29-.41-1.8-.27-.51-.62-.76-1.03-.76-.63,0-1.18,.24-1.66,.7-.48,.47-.98,1.08-1.5,1.82,.49,.54,.94,.95,1.33,1.26,.4,.31,.83,.46,1.29,.46s.91-.12,1.33-.36c.43-.24,.64-.68,.64-1.33Zm.08,17.17c0-.75-.18-1.38-.54-1.9-.36-.52-.83-.79-1.43-.79-.52,0-.96,.27-1.32,.79-.36,.52-.53,1.16-.53,1.9s.18,1.33,.53,1.84c.36,.51,.8,.76,1.32,.76,.58,0,1.04-.25,1.42-.76,.37-.5,.55-1.12,.55-1.84Z" fill="#1f2879"/>
    <path d="M678.92,108.79c0-2.35-.42-4.32-1.27-5.92-.85-1.6-1.98-2.9-3.39-3.9-1.41-1-3.03-1.72-4.85-2.16-1.82-.44-3.69-.66-5.61-.66-.69,0-1.46,.06-2.32,.16-.86,.1-1.67,.29-2.44,.56,.71,.77,1.23,1.58,1.56,2.42,.33,.84,.5,1.77,.5,2.78,0,1.09-.3,2.1-.89,3.02-.59,.92-1.34,1.71-2.26,2.38-.92,.67-1.95,1.19-3.08,1.58-1.13,.39-2.25,.58-3.35,.58-1.26,0-2.43-.22-3.51-.64-1.08-.42-2.01-1-2.79-1.72-.78-.72-1.39-1.56-1.83-2.52-.44-.96-.66-1.99-.66-3.09,0-1.65,.37-3.09,1.09-4.32,.73-1.23,1.69-2.29,2.88-3.18,1.19-.89,2.56-1.62,4.11-2.2,1.55-.58,3.14-1.03,4.76-1.38,1.63-.35,3.24-.59,4.83-.72,1.59-.13,3.02-.2,4.31-.2,2.91,0,5.73,.41,8.46,1.23,2.74,.81,5.18,2.02,7.31,3.64,2.14,1.61,3.85,3.61,5.15,6,1.3,2.39,1.95,5.14,1.95,8.26h-8.67Zm-24.81-7.13c0-.77-.2-1.42-.6-1.96-.39-.53-.87-.8-1.42-.8s-1.02,.27-1.41,.8c-.4,.54-.6,1.19-.6,1.96s.2,1.39,.6,1.92c.4,.53,.87,.8,1.41,.8s1.02-.26,1.42-.8c.4-.53,.6-1.17,.6-1.92Z" fill="#1f2879"/>
    <path d="M709.89,115.87c.41,.72,.75,1.49,1.03,2.3,.27,.81,.5,1.63,.66,2.44,.16,.81,.29,1.6,.37,2.38,.08,.77,.12,1.46,.12,2.08v23.81c0,1.42,.32,2.54,.95,3.36,.63,.83,1.44,1.45,2.42,1.86,.99,.41,2.07,.67,3.27,.78,1.19,.11,2.34,.16,3.47,.16s2.14-.14,3.22-.43c1.09-.28,2.07-.71,2.96-1.29,.89-.59,1.61-1.34,2.17-2.27,.56-.92,.84-2.02,.84-3.3v-23.52c0-.64-.09-1.34-.28-2.08-.19-.75-.44-1.49-.74-2.24-.3-.75-.63-1.47-.98-2.18-.36-.7-.68-1.32-.98-1.86h9.28c.49,.67,.89,1.38,1.19,2.14,.3,.76,.54,1.53,.7,2.3,.17,.77,.28,1.52,.33,2.26,.05,.73,.08,1.38,.08,1.94v24.53c0,1.39-.26,2.67-.76,3.84-.51,1.18-1.19,2.24-2.05,3.18-.86,.95-1.87,1.77-3,2.48-1.13,.71-2.35,1.3-3.63,1.79-1.29,.47-2.61,.84-3.96,1.08-1.36,.24-2.68,.36-3.97,.36-1.04,0-2.14-.03-3.29-.09-1.15-.04-2.31-.16-3.49-.31-1.18-.16-2.32-.4-3.43-.72-1.11-.32-2.12-.76-3.02-1.33-.49,.46-1.07,.83-1.73,1.12-.66,.29-1.33,.54-2.03,.74-.7,.2-1.4,.34-2.1,.42-.7,.08-1.33,.12-1.91,.12-1.47,0-2.79-.2-3.92-.6-1.14-.4-2.09-.96-2.86-1.68-.77-.73-1.34-1.57-1.72-2.54-.38-.97-.57-2.02-.57-3.14,0-1.04,.21-2.04,.64-3,.42-.95,1.03-1.8,1.81-2.54,.78-.74,1.73-1.33,2.85-1.78,1.12-.46,2.38-.68,3.78-.68,.63,0,1.26,.06,1.89,.16v-21.01c0-.59-.08-1.27-.24-2.06-.17-.78-.39-1.6-.66-2.44-.28-.84-.6-1.66-.97-2.44-.37-.79-.77-1.49-1.21-2.1h9.49Zm-10.23,37.89c0,.75,.19,1.38,.55,1.88,.37,.51,.83,.76,1.37,.76s1.01-.25,1.38-.76c.37-.5,.55-1.13,.55-1.88s-.19-1.37-.55-1.88c-.37-.51-.83-.77-1.38-.77s-1,.26-1.37,.77c-.37,.51-.55,1.13-.55,1.88Z" fill="#1f2879"/>
  </g>
  <g>
    <path d="M268.55,229.37v-39.82h9.5v33.06h23.63v6.76h-33.14Z" fill="#1f2879"/>
    <path d="M350.92,229.37h-10.34l-4.11-9.12h-18.82l-3.88,9.12h-10.08l18.33-40.15h10.05l18.85,40.15Zm-17.5-15.88l-6.48-14.9-6.36,14.9h12.84Z" fill="#1f2879"/>
    <path d="M354.03,209.54c0-4.09,.72-7.52,2.15-10.29,1.07-2.04,2.53-3.88,4.38-5.51,1.85-1.62,3.88-2.83,6.09-3.62,2.93-1.05,6.31-1.59,10.15-1.59,6.94,0,12.49,1.83,16.65,5.51,4.16,3.67,6.25,8.77,6.25,15.31s-2.07,11.55-6.2,15.21c-4.13,3.66-9.65,5.48-16.57,5.48s-12.57-1.82-16.7-5.46c-4.13-3.65-6.2-8.66-6.2-15.05Zm9.79-.27c0,4.54,1.23,7.99,3.69,10.34,2.46,2.35,5.59,3.52,9.38,3.52s6.9-1.16,9.33-3.49c2.43-2.33,3.65-5.82,3.65-10.47s-1.19-8.04-3.55-10.3c-2.37-2.26-5.5-3.4-9.42-3.4s-7.08,1.15-9.47,3.44c-2.4,2.29-3.6,5.74-3.6,10.37Z" fill="#1f2879"/>
    <path d="M435.98,229.37v-33.36h-13.97v-6.79h37.41v6.79h-13.93v33.36h-9.51Z" fill="#1f2879"/>
    <path d="M465.55,229.37v-40.15h34.91v6.79h-25.4v8.9h23.64v6.76h-23.64v10.93h26.3v6.76h-35.8Z" fill="#1f2879"/>
    <path d="M509.67,229.37v-39.82h9.5v33.06h23.63v6.76h-33.14Z" fill="#1f2879"/>
    <path d="M549.58,229.37v-40.15h34.91v6.79h-25.4v8.9h23.63v6.76h-23.63v10.93h26.3v6.76h-35.81Z" fill="#1f2879"/>
    <path d="M623.57,214.61l9.21,2.49c-1.41,4.38-3.76,7.64-7.04,9.76-3.29,2.13-7.46,3.19-12.51,3.19-6.25,0-11.39-1.82-15.41-5.46-4.03-3.65-6.04-8.62-6.04-14.94,0-6.69,2.03-11.87,6.07-15.57,4.05-3.7,9.37-5.55,15.96-5.55,5.76,0,10.44,1.46,14.03,4.36,2.14,1.71,3.75,4.18,4.82,7.39l-9.41,1.92c-.55-2.08-1.72-3.72-3.48-4.93-1.77-1.21-3.91-1.81-6.44-1.81-3.49,0-6.32,1.07-8.49,3.21-2.17,2.13-3.26,5.6-3.26,10.38,0,5.08,1.07,8.69,3.21,10.84,2.14,2.16,4.92,3.23,8.35,3.23,2.53,0,4.7-.68,6.52-2.05,1.82-1.37,3.12-3.52,3.92-6.46Z" fill="#1f2879"/>
    <path d="M639.01,209.54c0-4.09,.72-7.52,2.15-10.29,1.07-2.04,2.53-3.88,4.38-5.51,1.85-1.62,3.88-2.83,6.08-3.62,2.94-1.05,6.32-1.59,10.14-1.59,6.94,0,12.49,1.83,16.65,5.51,4.16,3.67,6.24,8.77,6.24,15.31s-2.07,11.55-6.2,15.21c-4.13,3.66-9.65,5.48-16.57,5.48s-12.57-1.82-16.7-5.46c-4.13-3.65-6.2-8.66-6.2-15.05Zm9.8-.27c0,4.54,1.23,7.99,3.69,10.34,2.46,2.35,5.59,3.52,9.38,3.52s6.9-1.16,9.33-3.49c2.43-2.33,3.64-5.82,3.64-10.47s-1.18-8.04-3.55-10.3c-2.37-2.26-5.51-3.4-9.42-3.4s-7.08,1.15-9.47,3.44c-2.4,2.29-3.6,5.74-3.6,10.37Z" fill="#1f2879"/>
    <path d="M691.96,229.37v-40.15h14.22l8.54,27.38,8.45-27.38h14.26v40.15h-8.83v-31.61l-9.34,31.61h-9.15l-9.31-31.61v31.61h-8.83Z" fill="#1f2879"/>
  </g>
</svg>