<?xml version="1.0" encoding="UTF-8"?>
<svg id="uuid-9c2e16a4-cc17-4d7d-b05b-6f330a272ebd" data-name="Layer 1" xmlns="http://www.w3.org/2000/svg" viewBox="0 0 512 512">
  <path d="M62.84,98.36L201.16,236.74c30.17,30.11,79.48,30.14,109.68,0L449.16,98.36c1.39-1.39,1.19-3.69-.43-4.81-14.11-9.84-31.27-15.67-49.76-15.67H113.03c-18.49,0-35.66,5.83-49.76,15.67-1.62,1.13-1.82,3.42-.43,4.81h0ZM25.88,165.03c0-14.54,3.6-28.28,9.96-40.35,.99-1.89,3.51-2.27,5.02-.76l136.57,136.57c43.25,43.31,113.89,43.33,157.16,0L471.15,123.92c1.51-1.51,4.03-1.13,5.02,.76,6.35,12.08,9.95,25.81,9.95,40.35v181.94c0,48.09-39.12,87.15-87.15,87.15H113.03c-48.03,0-87.15-39.06-87.15-87.15V165.03Z" fill="#fff" fill-rule="evenodd"/>
</svg>