<?xml version="1.0" encoding="UTF-8"?>
<svg id="uuid-396890bc-af3e-4848-845d-ec44d3048406" data-name="Capa 1" xmlns="http://www.w3.org/2000/svg" viewBox="0 0 512 512">
  <path d="M439.67,481.89l-201.38-106.62c-5.25-2.78-11.65-2.4-16.61,.96l-153.98,106.62c-5.76,4-8.26,11.26-6.14,17.95,2.05,6.62,8.26,11.2,15.23,11.2H432.15c7.33,0,13.76-4.99,15.52-12.16,1.79-7.14-1.54-14.53-8-17.95Z" fill="#fff"/>
  <path d="M507.06,451.49l-47.36-213.22c-1.15-5.22-4.83-9.47-9.79-11.42-4.99-1.95-10.59-1.28-14.94,1.73l-154.02,106.62c-4.61,3.2-7.2,8.54-6.85,14.08,.32,5.6,3.55,10.59,8.48,13.18l201.34,106.62c2.37,1.25,4.93,1.89,7.49,1.89,3.42,0,6.85-1.09,9.7-3.3,4.96-3.78,7.3-10.08,5.95-16.19Z" fill="#fff"/>
  <path d="M395.64,203.23c-2.11-6.69-8.29-11.23-15.3-11.23H234.29c-26.56,48.1-65.86,94.08-82.02,112.06-9.09,10.11-22.11,15.94-35.71,15.94s-26.62-5.82-35.71-15.94c-6.24-6.94-15.9-18.05-26.98-31.81L15.16,446.53c-1.41,6.43,1.25,13.06,6.69,16.74,2.69,1.82,5.82,2.72,8.93,2.72s6.37-.93,9.12-2.85L389.43,221.12c5.79-3.94,8.26-11.2,6.21-17.89Z" fill="#fff"/>
  <path d="M116.57,0C54.81,0,4.57,50.24,4.57,112c0,57.47,89.86,159.26,100.1,170.69,3.04,3.36,7.36,5.31,11.9,5.31s8.86-1.95,11.9-5.31c10.24-11.42,100.1-113.22,100.1-170.69C228.57,50.24,178.32,0,116.57,0Zm0,160c-26.5,0-48-21.5-48-48s21.5-48,48-48,48,21.5,48,48-21.5,48-48,48Z" fill="#fff"/>
</svg>