<svg width="24" height="24" viewBox="0 0 24 24" fill="none" xmlns="http://www.w3.org/2000/svg">
<g clip-path="url(#clip0_354_297)">
<path d="M13.5693 7.64948C13.2033 7.28351 12.6095 7.28351 12.2435 7.64948C11.8776 8.01546 11.8776 8.60924 12.2435 8.97522L14.3307 11.0624H7.37511C6.85726 11.0624 6.4375 11.4822 6.4375 12C6.4375 12.5179 6.85726 12.9377 7.37511 12.9377H14.3304L12.2432 15.0249C11.8772 15.3908 11.8772 15.9846 12.2432 16.3506C12.4263 16.5338 12.6661 16.6252 12.9062 16.6252C13.1463 16.6252 13.3861 16.5338 13.5693 16.3506L17.2564 12.6634C17.4259 12.494 17.531 12.2602 17.5314 12.0015V11.9986C17.531 11.7395 17.4255 11.5054 17.2554 11.3359L13.5693 7.64983V7.64948Z" fill="#6366F1"/>
<path d="M21.6853 22.0777L22.0777 21.6853C22.6901 21.0729 23.1689 20.3568 23.5001 19.5563C23.8313 18.7565 23.9997 17.9117 23.9997 17.0458V6.95387C23.9997 6.08798 23.8316 5.24353 23.5001 4.44373C23.1686 3.64358 22.6901 2.92709 22.0777 2.31468L21.6853 1.92233C21.0729 1.30992 20.3568 0.83109 19.5563 0.499919C18.7561 0.168046 17.9113 0 17.0451 0H6.95458C6.08833 0 5.24353 0.168046 4.44338 0.499568C3.64322 0.83109 2.92674 1.30956 2.31432 1.92198L1.92198 2.31432C1.30956 2.92674 0.830738 3.64322 0.499568 4.44338C0.168046 5.24388 0 6.08868 0 6.95493V17.0451C0 17.9113 0.168046 18.7561 0.499568 19.5566C0.83109 20.3571 1.30956 21.0733 1.92198 21.6857L2.31432 22.078C2.92674 22.6904 3.64322 23.1693 4.44338 23.5004C5.24318 23.832 6.08798 24 6.95387 24H17.0458C17.9117 24 18.7561 23.832 19.5563 23.5004C20.3564 23.1689 21.0729 22.6904 21.6853 22.078V22.0777ZM6.95493 22.1248C5.70302 22.1248 4.52564 21.6372 3.64041 20.7519L3.24807 20.3596C2.36284 19.4744 1.87523 18.2973 1.87523 17.0451V6.95493C1.87523 5.70267 2.36284 4.52564 3.24807 3.64041L3.64041 3.24807C4.52564 2.36284 5.70267 1.87523 6.95493 1.87523H17.0451C18.2973 1.87523 19.4744 2.36284 20.3596 3.24807L20.7523 3.64076C21.6375 4.52599 22.1251 5.70302 22.1251 6.95528V17.0451C22.1251 18.2973 21.6375 19.4744 20.7523 20.3596L20.3599 20.7523C19.4747 21.6375 18.2973 22.1251 17.0454 22.1251H6.95493V22.1248Z" fill="#6366F1"/>
</g>
<defs>
<clipPath id="clip0_354_297">
<rect width="24" height="24" fill="white"/>
</clipPath>
</defs>
</svg>
