<svg width="44" height="44" viewBox="0 0 44 44" fill="none" xmlns="http://www.w3.org/2000/svg">
<g clip-path="url(#clip0_357_302)">
<path d="M22 44C34.1503 44 44 34.1503 44 22C44 9.84974 34.1503 0 22 0C9.84974 0 0 9.84974 0 22C0 34.1503 9.84974 44 22 44Z" fill="#F9D1D1"/>
<path d="M27.3519 22.978L20.4365 29.8943C20.1667 30.1641 19.8118 30.2999 19.4586 30.2999C19.1054 30.2999 18.7504 30.1641 18.4806 29.8943C17.9401 29.3537 17.9401 28.4789 18.4806 27.9383L24.418 22.0009L18.4806 16.0635C17.9401 15.5221 17.9401 14.6481 18.4806 14.1076C19.0212 13.567 19.8951 13.567 20.4365 14.1076L27.3519 21.0238C27.8925 21.5644 27.8925 22.4383 27.3519 22.9789V22.978Z" fill="#DA1C1C"/>
</g>
<defs>
<clipPath id="clip0_357_302">
<rect width="44" height="44" fill="white"/>
</clipPath>
</defs>
</svg>
