<svg width="512" height="512" viewBox="0 0 512 512" fill="none" xmlns="http://www.w3.org/2000/svg">
<path d="M56 488L456 488C473.673 488 488 473.673 488 456V376C488 358.327 473.673 344 456 344L56 344C38.3269 344 24 358.327 24 376V456C24 473.673 38.3269 488 56 488Z" fill="#15DE5F"/>
<path d="M488 376V456C488.001 460.203 487.174 464.364 485.566 468.247C483.959 472.13 481.602 475.658 478.63 478.63C475.658 481.602 472.13 483.959 468.247 485.566C464.364 487.174 460.203 488.001 456 488H56C51.7974 488.001 47.6358 487.174 43.7529 485.566C39.87 483.959 36.3419 481.601 33.3702 478.63C30.3986 475.658 28.0415 472.13 26.4337 468.247C24.8259 464.364 23.9989 460.203 24 456V432C23.9989 436.203 24.8259 440.364 26.4337 444.247C28.0415 448.13 30.3986 451.658 33.3702 454.63C36.3419 457.601 39.87 459.959 43.7529 461.566C47.6358 463.174 51.7974 464.001 56 464H416C420.203 464.001 424.364 463.174 428.247 461.566C432.13 459.959 435.658 457.602 438.63 454.63C441.602 451.658 443.959 448.13 445.566 444.247C447.174 440.364 448.001 436.203 448 432V376C448.001 371.797 447.174 367.636 445.567 363.753C443.959 359.87 441.602 356.342 438.63 353.37C435.658 350.398 432.13 348.041 428.247 346.433C424.364 344.826 420.203 343.999 416 344H456C460.203 343.999 464.364 344.826 468.247 346.433C472.13 348.041 475.658 350.398 478.63 353.37C481.602 356.342 483.959 359.87 485.567 363.753C487.174 367.636 488.001 371.797 488 376Z" fill="#10B04B"/>
<path d="M242.641 396C242.116 395.089 241.417 394.291 240.583 393.651C239.75 393.011 238.798 392.542 237.783 392.269C236.768 391.997 235.709 391.928 234.667 392.065C233.625 392.203 232.621 392.544 231.711 393.07L216 402.142V384C216 381.878 215.157 379.843 213.657 378.343C212.157 376.843 210.122 376 208 376C205.878 376 203.843 376.843 202.343 378.343C200.843 379.843 200 381.878 200 384V402.142L184.289 393.07C183.379 392.544 182.374 392.203 181.332 392.065C180.29 391.928 179.231 391.997 178.216 392.269C177.201 392.541 176.249 393.01 175.415 393.65C174.581 394.29 173.881 395.088 173.356 395.998C172.83 396.908 172.489 397.913 172.352 398.955C172.215 399.997 172.285 401.056 172.558 402.072C172.83 403.087 173.3 404.038 173.94 404.872C174.58 405.705 175.378 406.405 176.289 406.93L191.998 416L176.289 425.07C174.452 426.132 173.112 427.879 172.564 429.928C172.015 431.978 172.302 434.161 173.363 435.998C174.423 437.835 176.17 439.176 178.219 439.726C180.268 440.276 182.451 439.989 184.289 438.93L200 429.858V448C200 450.122 200.843 452.157 202.343 453.657C203.843 455.157 205.878 456 208 456C210.122 456 212.157 455.157 213.657 453.657C215.157 452.157 216 450.122 216 448V429.858L231.711 438.93C233.549 439.989 235.732 440.276 237.781 439.726C239.83 439.176 241.577 437.835 242.637 435.998C243.698 434.161 243.985 431.978 243.436 429.928C242.888 427.879 241.548 426.132 239.711 425.07L224.002 416L239.711 406.93C241.549 405.869 242.89 404.121 243.439 402.071C243.988 400.022 243.701 397.838 242.641 396Z" fill="#EEEEEE"/>
<path d="M146.641 396C146.116 395.09 145.417 394.291 144.583 393.651C143.75 393.011 142.798 392.542 141.783 392.27C140.768 391.998 139.709 391.928 138.667 392.066C137.625 392.203 136.621 392.544 135.711 393.07L120 402.142V384C120 381.878 119.157 379.843 117.657 378.343C116.157 376.843 114.122 376 112 376C109.878 376 107.843 376.843 106.343 378.343C104.843 379.843 104 381.878 104 384V402.142L88.289 393.07C87.379 392.544 86.3742 392.203 85.3321 392.065C84.2901 391.928 83.2312 391.997 82.2158 392.269C81.2005 392.541 80.2487 393.01 79.4148 393.65C78.5809 394.29 77.8812 395.088 77.3558 395.998C76.8303 396.908 76.4894 397.913 76.3524 398.955C76.2154 399.997 76.2851 401.056 76.5575 402.072C76.8299 403.087 77.2997 404.038 77.9399 404.872C78.5802 405.705 79.3784 406.405 80.289 406.93L95.998 416L80.289 425.07C78.4523 426.132 77.1123 427.879 76.5636 429.928C76.0148 431.978 76.3024 434.161 77.3629 435.998C78.4234 437.835 80.1701 439.176 82.219 439.726C84.2679 440.276 86.4512 439.989 88.289 438.93L104 429.858V448C104 450.122 104.843 452.157 106.343 453.657C107.843 455.157 109.878 456 112 456C114.122 456 116.157 455.157 117.657 453.657C119.157 452.157 120 450.122 120 448V429.858L135.711 438.93C137.549 439.989 139.732 440.276 141.781 439.726C143.83 439.176 145.577 437.835 146.637 435.998C147.698 434.161 147.985 431.978 147.436 429.928C146.888 427.879 145.548 426.132 143.711 425.07L128.002 416L143.711 406.93C145.549 405.869 146.889 404.121 147.439 402.071C147.988 400.022 147.701 397.838 146.641 396Z" fill="#EEEEEE"/>
<path d="M338.641 396C338.116 395.089 337.417 394.291 336.583 393.651C335.75 393.011 334.798 392.542 333.783 392.269C332.768 391.997 331.709 391.928 330.667 392.065C329.625 392.203 328.621 392.544 327.711 393.07L312 402.142V384C312 381.878 311.157 379.843 309.657 378.343C308.157 376.843 306.122 376 304 376C301.878 376 299.843 376.843 298.343 378.343C296.843 379.843 296 381.878 296 384V402.142L280.289 393.07C279.379 392.544 278.374 392.203 277.332 392.065C276.29 391.928 275.231 391.997 274.216 392.269C273.201 392.541 272.249 393.01 271.415 393.65C270.581 394.29 269.881 395.088 269.356 395.998C268.83 396.908 268.489 397.913 268.352 398.955C268.215 399.997 268.285 401.056 268.558 402.072C268.83 403.087 269.3 404.038 269.94 404.872C270.58 405.705 271.378 406.405 272.289 406.93L287.998 416L272.289 425.07C270.452 426.132 269.112 427.879 268.564 429.928C268.015 431.978 268.302 434.161 269.363 435.998C270.423 437.835 272.17 439.176 274.219 439.726C276.268 440.276 278.451 439.989 280.289 438.93L296 429.858V448C296 450.122 296.843 452.157 298.343 453.657C299.843 455.157 301.878 456 304 456C306.122 456 308.157 455.157 309.657 453.657C311.157 452.157 312 450.122 312 448V429.858L327.711 438.93C328.621 439.456 329.626 439.797 330.668 439.935C331.71 440.072 332.769 440.003 333.784 439.731C334.799 439.459 335.751 438.99 336.585 438.35C337.419 437.71 338.119 436.912 338.644 436.002C339.17 435.092 339.511 434.087 339.648 433.045C339.784 432.003 339.715 430.944 339.442 429.928C339.17 428.913 338.7 427.962 338.06 427.128C337.42 426.295 336.622 425.595 335.711 425.07L320.002 416L335.711 406.93C337.549 405.869 338.889 404.121 339.439 402.071C339.988 400.022 339.701 397.838 338.641 396Z" fill="#EEEEEE"/>
<path d="M431.711 425.07L416.002 416L431.711 406.93C432.622 406.405 433.42 405.705 434.06 404.872C434.701 404.038 435.17 403.087 435.443 402.072C435.715 401.056 435.785 399.997 435.648 398.955C435.511 397.913 435.17 396.908 434.644 395.998C434.119 395.088 433.419 394.29 432.585 393.65C431.751 393.01 430.8 392.541 429.784 392.269C428.769 391.997 427.71 391.928 426.668 392.065C425.626 392.203 424.621 392.544 423.711 393.07L408 402.142V384C408 381.878 407.157 379.843 405.657 378.343C404.157 376.843 402.122 376 400 376C397.878 376 395.844 376.843 394.343 378.343C392.843 379.843 392 381.878 392 384V402.142L376.289 393.07C374.451 392.011 372.268 391.724 370.219 392.274C368.17 392.824 366.424 394.165 365.363 396.002C364.303 397.839 364.015 400.022 364.564 402.072C365.113 404.121 366.453 405.868 368.289 406.93L383.998 416L368.289 425.07C366.453 426.132 365.113 427.879 364.564 429.928C364.015 431.978 364.303 434.161 365.363 435.998C366.424 437.835 368.17 439.176 370.219 439.726C372.268 440.276 374.451 439.989 376.289 438.93L392 429.858V448C392 450.122 392.843 452.157 394.343 453.657C395.844 455.157 397.878 456 400 456C402.122 456 404.157 455.157 405.657 453.657C407.157 452.157 408 450.122 408 448V429.858L423.711 438.93C424.621 439.456 425.626 439.797 426.668 439.935C427.71 440.072 428.769 440.003 429.784 439.731C430.8 439.459 431.751 438.99 432.585 438.35C433.419 437.71 434.119 436.912 434.644 436.002C435.17 435.092 435.511 434.087 435.648 433.045C435.785 432.003 435.715 430.944 435.443 429.928C435.17 428.913 434.701 427.962 434.06 427.128C433.42 426.295 432.622 425.595 431.711 425.07Z" fill="#EEEEEE"/>
<path d="M328 120H312V88C312 73.1479 306.1 58.9041 295.598 48.402C285.096 37.9 270.852 32 256 32C241.148 32 226.904 37.9 216.402 48.402C205.9 58.9041 200 73.1479 200 88V120H184V88C184 68.9044 191.586 50.5909 205.088 37.0883C218.591 23.5857 236.904 16 256 16C275.096 16 293.409 23.5857 306.912 37.0883C320.414 50.5909 328 68.9044 328 88V120Z" fill="#EEEEEE"/>
<path d="M176 120H336C340.243 120 344.313 121.686 347.314 124.686C350.314 127.687 352 131.757 352 136V264C352 272.487 348.629 280.626 342.627 286.627C336.626 292.629 328.487 296 320 296H192C183.513 296 175.374 292.629 169.373 286.627C163.371 280.626 160 272.487 160 264V136C160 131.757 161.686 127.687 164.686 124.686C167.687 121.686 171.757 120 176 120Z" fill="#E22525"/>
<path d="M352 136V264C352.001 268.203 351.174 272.364 349.566 276.247C347.959 280.13 345.602 283.658 342.63 286.63C339.658 289.602 336.13 291.959 332.247 293.566C328.364 295.174 324.203 296.001 320 296H192C187.797 296.001 183.636 295.174 179.753 293.566C175.87 291.959 172.342 289.601 169.37 286.63C166.399 283.658 164.041 280.13 162.434 276.247C160.826 272.364 159.999 268.203 160 264V240C159.999 244.203 160.826 248.364 162.434 252.247C164.041 256.13 166.399 259.658 169.37 262.63C172.342 265.601 175.87 267.959 179.753 269.566C183.636 271.174 187.797 272.001 192 272H280C284.203 272.001 288.364 271.174 292.247 269.566C296.13 267.959 299.658 265.602 302.63 262.63C305.602 259.658 307.959 256.13 309.566 252.247C311.174 248.364 312.001 244.203 312 240V136C311.988 131.76 310.298 127.698 307.3 124.7C304.302 121.702 300.24 120.012 296 120H336C340.24 120.012 344.302 121.702 347.3 124.7C350.298 127.698 351.988 131.76 352 136Z" fill="#B81818"/>
<path d="M280 192C280.005 187.868 278.943 183.805 276.916 180.204C274.89 176.603 271.969 173.586 268.434 171.445C264.9 169.304 260.873 168.112 256.743 167.984C252.613 167.856 248.52 168.797 244.86 170.715C241.2 172.633 238.097 175.463 235.852 178.932C233.607 182.401 232.295 186.391 232.044 190.515C231.793 194.639 232.612 198.759 234.42 202.474C236.228 206.19 238.964 209.375 242.365 211.723L232 248H280L269.635 211.723C272.832 209.521 275.445 206.576 277.25 203.14C279.056 199.705 280 195.882 280 192Z" fill="#F5F5F5"/>
<path d="M258.4 211.76L248 248H232L242.4 211.76C238.18 208.86 235 204.685 233.323 199.847C231.646 195.008 231.561 189.761 233.081 184.871C234.601 179.981 237.645 175.706 241.769 172.67C245.893 169.635 250.88 167.998 256 168C258.733 167.983 261.445 168.472 264 169.44C259.311 171.058 255.246 174.104 252.376 178.15C249.506 182.196 247.976 187.04 248 192C248.003 195.89 248.951 199.721 250.763 203.163C252.575 206.605 255.196 209.556 258.4 211.76Z" fill="#DDDDDD"/>
</svg>
