<svg width="104" height="104" viewBox="0 0 104 104" fill="none" xmlns="http://www.w3.org/2000/svg">
<g clip-path="url(#clip0_341_328)">
<path fill-rule="evenodd" clip-rule="evenodd" d="M52 98.8001C77.8469 98.8001 98.8001 77.8474 98.8001 52C98.8001 26.1531 77.8474 5.19989 52 5.19989C26.1531 5.19989 5.19989 26.1531 5.19989 52C5.19989 77.8469 26.1531 98.8001 52 98.8001ZM52 104C80.7185 104 104 80.7185 104 52C104 23.281 80.7185 0 52 0C23.281 0 0 23.281 0 52C0 80.7185 23.281 104 52 104Z" fill="white"/>
<path fill-rule="evenodd" clip-rule="evenodd" d="M65.5124 52.0005L41.5999 36.059V67.9426L65.5124 52.0005ZM70.3436 48.972C72.5051 50.413 72.5051 53.5886 70.3436 55.0296L42.0586 73.8866C39.6397 75.4994 36.3994 73.7648 36.3994 70.8576V33.1441C36.3994 30.2368 39.6397 28.5028 42.0586 30.1156L70.3436 48.972Z" fill="white"/>
</g>
<defs>
<clipPath id="clip0_341_328">
<rect width="104" height="104" fill="white"/>
</clipPath>
</defs>
</svg>
