<svg width="44" height="44" viewBox="0 0 44 44" fill="none" xmlns="http://www.w3.org/2000/svg">
<g clip-path="url(#clip0_357_305)">
<path d="M22 44C9.84974 44 0 34.1503 0 22C0 9.84974 9.84974 0 22 0C34.1503 0 44 9.84974 44 22C44 34.1503 34.1503 44 22 44Z" fill="#F9D1D1"/>
<path d="M16.6481 22.978L23.5635 29.8943C23.8333 30.1641 24.1882 30.2999 24.5414 30.2999C24.8946 30.2999 25.2496 30.1641 25.5194 29.8943C26.0599 29.3537 26.0599 28.4789 25.5194 27.9383L19.582 22.0009L25.5194 16.0635C26.0599 15.5221 26.0599 14.6481 25.5194 14.1076C24.9788 13.567 24.1049 13.567 23.5635 14.1076L16.6481 21.0238C16.1075 21.5644 16.1075 22.4383 16.6481 22.9789V22.978Z" fill="#DA1C1C"/>
</g>
<defs>
<clipPath id="clip0_357_305">
<rect width="44" height="44" fill="white" transform="matrix(-1 0 0 1 44 0)"/>
</clipPath>
</defs>
</svg>
