<svg width="34" height="35" viewBox="0 0 34 35" fill="none" xmlns="http://www.w3.org/2000/svg">
<g clip-path="url(#clip0_326_55)">
<path d="M16.9999 0.5C11.7761 5.98941 3.09863 4.75 3.09863 4.75V19.625C3.09863 28.3906 16.9999 34.5 16.9999 34.5C16.9999 34.5 30.9011 28.3906 30.9011 19.625V4.75C30.9011 4.75 22.2236 5.98941 16.9999 0.5Z" fill="#38DB74"/>
<path d="M16.9999 5.39355C13.2811 9.30302 7.10059 8.42168 7.10059 8.42168V19.0148C7.10059 25.2565 16.9999 29.6069 16.9999 29.6069C16.9999 29.6069 26.8997 25.2559 26.8997 19.0137V8.42062C26.8997 8.42062 20.7186 9.30302 16.9999 5.39355Z" fill="#E09F3E"/>
<path d="M16.0266 22.9163L10.8926 18.627L12.2547 16.996L15.6186 19.8069L21.1303 11.9922L22.8675 13.2167L16.0266 22.9163Z" fill="white"/>
</g>
<defs>
<clipPath id="clip0_326_55">
<rect width="34" height="34" fill="white" transform="translate(0 0.5)"/>
</clipPath>
</defs>
</svg>
