<?xml version="1.0" encoding="utf-8"?>
<!-- Generator: Adobe Illustrator 27.0.1, SVG Export Plug-In . SVG Version: 6.00 Build 0)  -->
<svg version="1.1" id="Capa_1" xmlns="http://www.w3.org/2000/svg" xmlns:xlink="http://www.w3.org/1999/xlink" x="0px" y="0px"
	 viewBox="0 0 496.5 496.6" style="enable-background:new 0 0 496.5 496.6;" xml:space="preserve">
<style type="text/css">
	.st0{fill:#E53636;}
	.st1{fill-rule:evenodd;clip-rule:evenodd;fill:#E53636;}
</style>
<g>
	<path class="st0" d="M474.1,354.5L474.1,354.5L414,294.4c-10.9-11.3-23.9-17.3-37.7-17.3c-13.7,0-26.9,5.9-38.1,17.2l-33.9,33.9
		L302,327c-1.9-1-3.7-1.9-5.4-2.8c-4.1-2-7.7-4-10.7-5.8c-32.1-20.3-61.4-47-89.7-81.7c-12.7-16-21.6-29.8-28-43.4l-1.1-2.3l1.9-1.7
		c7.2-6.8,14.6-14,23.2-22.9c3-3.1,6.1-6.2,9.1-9.2c11.5-11.5,17.6-24.8,17.6-38.5c0-13.7-6.1-27-17.6-38.4l-29.7-29.9
		c-1.7-1.7-3.3-3.4-5-5c-1.6-1.6-3.2-3.3-4.9-5l-0.3-0.3c-6.1-6.3-13.3-13.6-20.4-20.2l-0.1-0.1C130,9.2,117,3.5,103.3,3.5
		c-13.5,0-26.7,5.7-38,16.4L27.9,57.5C13.7,71.7,5.6,89,4,108.8C2,133.1,6.5,159,18.1,190.3c17.7,48,44.3,92.4,83.7,139.8
		c47.8,57.1,105.5,102.3,171.5,134.3c25.4,12,59.3,26.1,96.4,28.5l0.7,0c2.2,0.1,4.2,0.2,6.4,0.2c25.9,0,46.8-9,63.7-27.4l0.1-0.1
		c0.1-0.1,0.3-0.4,0.5-0.6l0.2-0.3c5-6,10.6-11.5,17.4-18l1.3-1.3c5.9-5.7,10.4-10.1,14.2-14.1c11.1-11.6,16.9-24.9,16.9-38.7
		C491.2,378.7,485.3,365.5,474.1,354.5z M451.4,409.9l-0.1,0.1c-3.6,3.8-7.4,7.6-11.1,11.2l-3.1,3.1c-6.6,6.3-13.5,13.1-19.8,20.6
		l-0.1,0.2c-10.8,11.5-23.5,16.9-40.2,16.9c-1.4,0-2.7-0.1-4.2-0.2l-0.8,0c-32.1-2-62.2-14.7-84.9-25.4
		c-61.8-29.9-116-72.3-161-126.1c-37-44.4-61.9-85.9-78.4-130.5c-10-26.8-13.9-48.5-12.4-68.2c1.2-12.8,5.9-22.9,14.9-31.8
		l37.1-37.1c5.2-5,10.7-7.5,16-7.5c5.2,0,10.6,2.7,15.5,7.7l0.1,0.1c4.8,4.4,9.3,9,14,13.8l5.7,5.7c0.8,0.9,1.7,1.7,2.5,2.6
		c0.9,0.9,1.8,1.8,2.6,2.7c0.8,0.8,1.7,1.7,2.5,2.6c0.9,0.9,1.7,1.8,2.6,2.7l29.8,29.8c5.5,5.5,8.3,11,8.3,16.3
		c0,5.2-2.7,10.5-8.3,16.2c-0.5,0.5-1.1,1.1-1.6,1.6c-1,1-2,2.1-3.1,3.1c-0.8,0.8-1.5,1.6-2.3,2.3c-0.7,0.8-1.5,1.5-2.2,2.3
		l-0.1,0.1l-2.2,2.2c-8.5,8.6-16.5,16.6-25.2,24.4l-0.7,0.7c-10.8,10.8-7.2,21.7-5.9,25.8c0,0.1,0.1,0.2,0.1,0.2
		c0.1,0.1,0.1,0.3,0.2,0.5l0.2,0.4c8,19.3,19,37.1,35.6,57.9c30.1,37.1,61.9,66.1,97.1,88.5c3.8,2.4,7.7,4.4,11.4,6.3l0.1,0.1
		c0.4,0.2,0.8,0.4,1.2,0.6c0.3,0.1,0.6,0.3,0.9,0.4c4.1,2,7.7,3.9,10.6,5.7h0.1l0.9,0.6c0.1,0.1,0.3,0.1,0.4,0.2
		c3.7,2,7.5,2.9,11.3,2.9c6.3,0,12.2-2.6,17.5-7.8l37.4-37.4c5.1-5.1,10.6-7.8,15.8-7.8c6.9,0,12.4,4.8,15.1,7.8l60.5,60.4
		C462.5,387.8,462.3,398.5,451.4,409.9z"/>
</g>
<path class="st1" d="M-141.2,323.6c0,43.2-35.2,78.4-78.4,78.4h-257c-43.2,0-78.4-35.1-78.4-78.4V160c0-14.4,4-28,10.8-39.6
	l125.5,125.4c18.8,18.8,43.9,29.2,70.7,29.2c26.7,0,51.9-10.4,70.6-29.2L-152,120.4c6.9,11.6,10.8,25.2,10.8,39.6L-141.2,323.6
	L-141.2,323.6z M-219.6,81.7h-257c-17.8,0-34.3,6-47.5,16.1l126.7,126.7c13.1,13.1,30.6,20.3,49.3,20.3c18.7,0,36.2-7.2,49.3-20.3
	l126.7-126.8C-185.3,87.7-201.7,81.7-219.6,81.7L-219.6,81.7z M-219.6,51.4h-257c-59.9,0-108.6,48.7-108.6,108.6v163.6
	c0,59.9,48.7,108.6,108.6,108.6h257.1c59.9,0,108.6-48.7,108.6-108.6V160C-110.9,100.2-159.7,51.4-219.6,51.4L-219.6,51.4z"/>
</svg>
