<?xml version="1.0" encoding="UTF-8"?>
<svg id="uuid-5c40b68c-e2fd-4486-8e18-26305a26bf4e" data-name="Capa 1" xmlns="http://www.w3.org/2000/svg" viewBox="0 0 512 512">
  <path d="M256.06,0h-.13C114.78,0,0,114.82,0,256c0,56,18.05,107.9,48.74,150.05l-31.9,95.1,98.4-31.46c40.48,26.82,88.77,42.3,140.83,42.3,141.15,0,255.94-114.85,255.94-256S397.22,0,256.06,0Zm148.96,361.5c-6.18,17.44-30.69,31.9-50.24,36.13-13.38,2.85-30.85,5.12-89.66-19.26-75.23-31.17-123.68-107.62-127.46-112.58-3.62-4.96-30.4-40.48-30.4-77.22s18.66-54.62,26.18-62.3c6.18-6.3,16.38-9.18,26.18-9.18,3.17,0,6.02,.16,8.58,.29,7.52,.32,11.3,.77,16.26,12.64,6.18,14.88,21.22,51.62,23.01,55.39,1.82,3.78,3.65,8.9,1.09,13.86-2.4,5.12-4.51,7.39-8.29,11.74s-7.36,7.68-11.14,12.35c-3.46,4.06-7.36,8.42-3.01,15.94,4.35,7.36,19.39,31.9,41.54,51.62,28.58,25.44,51.74,33.57,60.03,37.02,6.18,2.56,13.54,1.95,18.05-2.85,5.73-6.18,12.8-16.42,20-26.5,5.12-7.23,11.58-8.13,18.37-5.57,6.91,2.4,43.49,20.48,51.01,24.22,7.52,3.78,12.48,5.57,14.3,8.74,1.79,3.17,1.79,18.05-4.38,35.52Z" fill="#fff"/>
</svg>