<?xml version="1.0" encoding="UTF-8"?>
<svg id="uuid-6e237006-3173-4d85-a9a4-9603a45ea5a2" data-name="Layer 3" xmlns="http://www.w3.org/2000/svg" viewBox="0 0 512 512">
  <path d="M342.18,160c-16.88-78.4-52.88-128-86.18-128s-69.3,49.6-86.18,128h172.35Z" fill="#777"/>
  <path d="M160,256c0,21.4,1.42,42.79,4.27,64h183.46c2.85-21.21,4.28-42.6,4.27-64,0-21.4-1.42-42.79-4.27-64H164.27c-2.85,21.21-4.28,42.6-4.27,64Z" fill="#777"/>
  <path d="M169.82,352c16.88,78.4,52.88,128,86.18,128s69.3-49.6,86.18-128H169.82Z" fill="#777"/>
  <path d="M374.94,160h100.8c-30.71-69.9-92.74-121.1-167.18-138.02,30.35,26.7,54.16,76.08,66.38,138.02Z" fill="#777"/>
  <path d="M487.25,192h-107.2c2.64,21.23,3.96,42.61,3.95,64,0,21.39-1.32,42.77-3.97,64h107.2c11.67-41.87,11.67-86.13,0-128h.02Z" fill="#777"/>
  <path d="M308.56,490.02c74.46-16.91,136.5-68.11,167.22-138.02h-100.8c-12.26,61.94-36.06,111.31-66.42,138.02Z" fill="#777"/>
  <path d="M137.06,352H36.26c30.72,69.9,92.76,121.11,167.22,138.02-30.38-26.7-54.19-76.08-66.42-138.02Z" fill="#777"/>
  <path d="M203.44,21.98C128.98,38.89,66.94,90.1,36.22,160h100.8c12.26-61.94,36.06-111.31,66.42-138.02Z" fill="#777"/>
  <path d="M128,256c0-21.39,1.32-42.77,3.97-64H24.77c-11.67,41.87-11.67,86.13,0,128h107.2c-2.64-21.23-3.97-42.61-3.97-64Z" fill="#777"/>
</svg>